  0
SECTION
  2
HEADER
  9
$ACADVER
  1
AC1009
  9
$DWGCODEPAGE
  3
ansi_1252
  9
$INSBASE
 10
0.0
 20
0.0
 30
0.0
  9
$EXTMIN
 10
1.000000000000000E+20
 20
1.000000000000000E+20
 30
1.000000000000000E+20
  9
$EXTMAX
 10
-1.000000000000000E+20
 20
-1.000000000000000E+20
 30
-1.000000000000000E+20
  9
$LIMMIN
 10
0.0
 20
0.0
  9
$LIMMAX
 10
12.0
 20
9.0
  9
$ORTHOMODE
 70
     0
  9
$REGENMODE
 70
     1
  9
$FILLMODE
 70
     1
  9
$QTEXTMODE
 70
     0
  9
$MIRRTEXT
 70
     1
  9
$DRAGMODE
 70
     2
  9
$LTSCALE
 40
1.0
  9
$OSMODE
 70
    37
  9
$ATTMODE
 70
     1
  9
$TEXTSIZE
 40
0.2
  9
$TRACEWID
 40
0.05
  9
$TEXTSTYLE
  7
STANDARD
  9
$CLAYER
  8
0
  9
$CELTYPE
  6
BYLAYER
  9
$CECOLOR
 62
   256
  9
$DIMSCALE
 40
1.0
  9
$DIMASZ
 40
0.18
  9
$DIMEXO
 40
0.0625
  9
$DIMDLI
 40
0.38
  9
$DIMRND
 40
0.0
  9
$DIMDLE
 40
0.0
  9
$DIMEXE
 40
0.18
  9
$DIMTP
 40
0.0
  9
$DIMTM
 40
0.0
  9
$DIMTXT
 40
0.18
  9
$DIMCEN
 40
0.09
  9
$DIMTSZ
 40
0.0
  9
$DIMTOL
 70
     0
  9
$DIMLIM
 70
     0
  9
$DIMTIH
 70
     1
  9
$DIMTOH
 70
     1
  9
$DIMSE1
 70
     0
  9
$DIMSE2
 70
     0
  9
$DIMTAD
 70
     0
  9
$DIMZIN
 70
     0
  9
$DIMBLK
  1

  9
$DIMASO
 70
     1
  9
$DIMSHO
 70
     1
  9
$DIMPOST
  1

  9
$DIMAPOST
  1

  9
$DIMALT
 70
     0
  9
$DIMALTD
 70
     2
  9
$DIMALTF
 40
25.4
  9
$DIMLFAC
 40
1.0
  9
$DIMTOFL
 70
     0
  9
$DIMTVP
 40
0.0
  9
$DIMTIX
 70
     0
  9
$DIMSOXD
 70
     0
  9
$DIMSAH
 70
     0
  9
$DIMBLK1
  1

  9
$DIMBLK2
  1

  9
$DIMSTYLE
  2
STANDARD
  9
$DIMCLRD
 70
     0
  9
$DIMCLRE
 70
     0
  9
$DIMCLRT
 70
     0
  9
$DIMTFAC
 40
1.0
  9
$DIMGAP
 40
0.09
  9
$LUNITS
 70
     2
  9
$LUPREC
 70
     4
  9
$SKETCHINC
 40
0.1
  9
$FILLETRAD
 40
0.5
  9
$AUNITS
 70
     0
  9
$AUPREC
 70
     0
  9
$MENU
  1
.
  9
$ELEVATION
 40
0.0
  9
$PELEVATION
 40
0.0
  9
$THICKNESS
 40
0.0
  9
$LIMCHECK
 70
     0
  9
$CHAMFERA
 40
0.0
  9
$CHAMFERB
 40
0.0
  9
$SKPOLY
 70
     0
  9
$TDCREATE
 40
2457557.472009907
  9
$TDUPDATE
 40
2457557.472011007
  9
$TDINDWG
 40
0.0000000116
  9
$TDUSRTIMER
 40
0.0000000116
  9
$USRTIMER
 70
     1
  9
$ANGBASE
 50
0.0
  9
$ANGDIR
 70
     0
  9
$PDMODE
 70
     0
  9
$PDSIZE
 40
0.0
  9
$PLINEWID
 40
0.0
  9
$COORDS
 70
     1
  9
$SPLFRAME
 70
     0
  9
$SPLINETYPE
 70
     6
  9
$SPLINESEGS
 70
     8
  9
$ATTDIA
 70
     0
  9
$ATTREQ
 70
     1
  9
$HANDLING
 70
     1
  9
$HANDSEED
  5
37D
  9
$SURFTAB1
 70
     6
  9
$SURFTAB2
 70
     6
  9
$SURFTYPE
 70
     6
  9
$SURFU
 70
     6
  9
$SURFV
 70
     6
  9
$UCSNAME
  2

  9
$UCSORG
 10
0.0
 20
0.0
 30
0.0
  9
$UCSXDIR
 10
1.0
 20
0.0
 30
0.0
  9
$UCSYDIR
 10
0.0
 20
1.0
 30
0.0
  9
$PUCSNAME
  2

  9
$PUCSORG
 10
0.0
 20
0.0
 30
0.0
  9
$PUCSXDIR
 10
1.0
 20
0.0
 30
0.0
  9
$PUCSYDIR
 10
0.0
 20
1.0
 30
0.0
  9
$USERI1
 70
     0
  9
$USERI2
 70
     0
  9
$USERI3
 70
     0
  9
$USERI4
 70
     0
  9
$USERI5
 70
     0
  9
$USERR1
 40
0.0
  9
$USERR2
 40
0.0
  9
$USERR3
 40
0.0
  9
$USERR4
 40
0.0
  9
$USERR5
 40
0.0
  9
$WORLDVIEW
 70
     1
  9
$SHADEDGE
 70
     3
  9
$SHADEDIF
 70
    70
  9
$TILEMODE
 70
     1
  9
$MAXACTVP
 70
    64
  9
$PLIMCHECK
 70
     0
  9
$PEXTMIN
 10
1.000000000000000E+20
 20
1.000000000000000E+20
 30
1.000000000000000E+20
  9
$PEXTMAX
 10
-1.000000000000000E+20
 20
-1.000000000000000E+20
 30
-1.000000000000000E+20
  9
$PLIMMIN
 10
0.0
 20
0.0
  9
$PLIMMAX
 10
12.0
 20
9.0
  9
$UNITMODE
 70
     0
  9
$VISRETAIN
 70
     1
  9
$PLINEGEN
 70
     0
  9
$PSLTSCALE
 70
     1
  0
ENDSEC
  0
SECTION
  2
TABLES
  0
TABLE
  2
VPORT
 70
     1
  0
VPORT
  2
*ACTIVE
 70
     0
 10
0.0
 20
0.0
 11
1.0
 21
1.0
 12
0.0
 22
0.0
 13
0.0
 23
0.0
 14
0.5
 24
0.5
 15
0.5
 25
0.5
 16
0.0
 26
0.0
 36
1.0
 17
0.0
 27
0.0
 37
-1000.0
 40
127.9272560691752
 41
1.931558935361217
 42
50.0
 43
10406.56094068713
 44
12747.0700386176
 50
0.0
 51
0.0
 71
     0
 72
   100
 73
     1
 74
     3
 75
     0
 76
     0
 77
     0
 78
     0
  0
ENDTAB
  0
TABLE
  2
LTYPE
 70
     1
  0
LTYPE
  2
CONTINUOUS
 70
     0
  3
Solid line
 72
    65
 73
     0
 40
0.0
  0
ENDTAB
  0
TABLE
  2
LAYER
 70
     3
  0
LAYER
  2
0
 70
     0
 62
     7
  6
CONTINUOUS
  0
LAYER
  2
PROFILEEDGES
 70
     0
 62
     7
  6
CONTINUOUS
  0
LAYER
  2
SECTIONCUTEDGES
 70
     0
 62
     7
  6
CONTINUOUS
  0
ENDTAB
  0
TABLE
  2
STYLE
 70
     1
  0
STYLE
  2
STANDARD
 70
     0
 40
0.0
 41
1.0
 50
0.0
 71
     0
 42
0.2
  3
txt
  4

  0
ENDTAB
  0
TABLE
  2
VIEW
 70
     0
  0
ENDTAB
  0
TABLE
  2
UCS
 70
     0
  0
ENDTAB
  0
TABLE
  2
APPID
 70
     1
  0
APPID
  2
ACAD
 70
     0
  0
ENDTAB
  0
TABLE
  2
DIMSTYLE
 70
     1
  0
DIMSTYLE
  2
STANDARD
 70
     0
  3

  4

  5

  6

  7

 40
1.0
 41
0.18
 42
0.0625
 43
0.38
 44
0.18
 45
0.0
 46
0.0
 47
0.0
 48
0.0
140
0.18
141
0.09
142
0.0
143
25.4
144
1.0
145
0.0
146
1.0
147
0.09
 71
     0
 72
     0
 73
     1
 74
     1
 75
     0
 76
     0
 77
     0
 78
     0
170
     0
171
     2
172
     0
173
     0
174
     0
175
     0
176
     0
177
     0
178
     0
  0
ENDTAB
  0
ENDSEC
  0
SECTION
  2
BLOCKS
  0
BLOCK
  8
0
  2
$MODEL_SPACE
 70
     0
 10
0.0
 20
0.0
 30
0.0
  3
$MODEL_SPACE
  1

  0
ENDBLK
  5
21
  8
0
  0
BLOCK
 67
     1
  8
0
  2
$PAPER_SPACE
 70
     0
 10
0.0
 20
0.0
 30
0.0
  3
$PAPER_SPACE
  1

  0
ENDBLK
  5
1D
 67
     1
  8
0
  0
ENDSEC
  0
SECTION
  2
ENTITIES
  0
LINE
  5
6C
  8
0
 10
-25.0266570808555
 20
23.50081112533086
 30
0.0
 11
-25.03200977275899
 21
23.66431894840622
 31
0.0
  0
LINE
  5
6D
  8
0
 10
-25.03200977275899
 20
23.66431894840622
 30
0.0
 11
-25.04804492742097
 21
23.82712660588099
 31
0.0
  0
LINE
  5
6E
  8
0
 10
-25.04804492742097
 20
23.82712660588099
 30
0.0
 11
-25.07469387984742
 21
23.98853693037118
 31
0.0
  0
LINE
  5
6F
  8
0
 10
-25.07469387984742
 20
23.98853693037118
 30
0.0
 11
-25.11184251513283
 21
24.14785873808716
 31
0.0
  0
LINE
  5
70
  8
0
 10
-25.11184251513283
 20
24.14785873808716
 30
0.0
 11
-25.15933175711773
 21
24.30440978858876
 31
0.0
  0
LINE
  5
71
  8
0
 10
-25.15933175711773
 20
24.30440978858876
 30
0.0
 11
-25.21695824957728
 21
24.45751970624358
 31
0.0
  0
LINE
  5
72
  8
0
 10
-25.21695824957728
 20
24.45751970624358
 30
0.0
 11
-25.28447522702378
 21
24.60653285087836
 31
0.0
  0
LINE
  5
73
  8
0
 10
-25.28447522702378
 20
24.60653285087836
 30
0.0
 11
-25.3615935713944
 21
24.75081112533086
 31
0.0
  0
LINE
  5
74
  8
0
 10
-25.3615935713944
 20
24.75081112533086
 30
0.0
 11
-25.44798305009913
 21
24.88973670787986
 31
0.0
  0
LINE
  5
75
  8
0
 10
-25.44798305009913
 20
24.88973670787986
 30
0.0
 11
-25.54327373012741
 21
25.02271469785266
 31
0.0
  0
LINE
  5
76
  8
0
 10
-25.54327373012741
 20
25.02271469785266
 30
0.0
 11
-25.64705756215805
 21
25.14917566308103
 31
0.0
  0
LINE
  5
77
  8
0
 10
-25.64705756215805
 20
25.14917566308103
 30
0.0
 11
-25.75889012788913
 21
25.26857807829722
 31
0.0
  0
LINE
  5
78
  8
0
 10
-25.75889012788913
 20
25.26857807829722
 30
0.0
 11
-25.87829254310532
 21
25.3804106440283
 31
0.0
  0
LINE
  5
79
  8
0
 10
-25.87829254310532
 20
25.3804106440283
 30
0.0
 11
-26.0047535083337
 21
25.48419447605894
 31
0.0
  0
LINE
  5
7A
  8
0
 10
-26.0047535083337
 20
25.48419447605894
 30
0.0
 11
-26.13773149830649
 21
25.57948515608722
 31
0.0
  0
LINE
  5
7B
  8
0
 10
-26.13773149830649
 20
25.57948515608722
 30
0.0
 11
-26.2766570808555
 21
25.66587463479195
 31
0.0
  0
LINE
  5
7C
  8
0
 10
-26.2766570808555
 20
25.66587463479195
 30
0.0
 11
-26.42093535530799
 21
25.74299297916258
 31
0.0
  0
LINE
  5
7D
  8
0
 10
-26.42093535530799
 20
25.74299297916258
 30
0.0
 11
-26.56994849994277
 21
25.81050995660907
 31
0.0
  0
LINE
  5
7E
  8
0
 10
-26.56994849994277
 20
25.81050995660907
 30
0.0
 11
-26.72305841759759
 21
25.86813644906862
 31
0.0
  0
LINE
  5
7F
  8
0
 10
-26.72305841759759
 20
25.86813644906862
 30
0.0
 11
-26.87960946809919
 21
25.91562569105352
 31
0.0
  0
LINE
  5
80
  8
0
 10
-26.87960946809919
 20
25.91562569105352
 30
0.0
 11
-27.03893127581518
 21
25.95277432633893
 31
0.0
  0
LINE
  5
81
  8
0
 10
-27.03893127581518
 20
25.95277432633893
 30
0.0
 11
-27.20034160030536
 21
25.97942327876538
 31
0.0
  0
LINE
  5
82
  8
0
 10
-27.20034160030536
 20
25.97942327876538
 30
0.0
 11
-27.36314925778014
 21
25.99545843342737
 31
0.0
  0
LINE
  5
83
  8
0
 10
-27.36314925778014
 20
25.99545843342737
 30
0.0
 11
-27.5266570808555
 21
26.00081112533086
 31
0.0
  0
LINE
  5
84
  8
0
 10
-27.5266570808555
 20
26.00081112533086
 30
0.0
 11
-27.69016490393085
 21
25.99545843342737
 31
0.0
  0
LINE
  5
85
  8
0
 10
-27.69016490393085
 20
25.99545843342737
 30
0.0
 11
-27.85297256140562
 21
25.97942327876538
 31
0.0
  0
LINE
  5
86
  8
0
 10
-27.85297256140562
 20
25.97942327876538
 30
0.0
 11
-28.01438288589582
 21
25.95277432633893
 31
0.0
  0
LINE
  5
87
  8
0
 10
-28.01438288589582
 20
25.95277432633893
 30
0.0
 11
-28.1737046936118
 21
25.91562569105352
 31
0.0
  0
LINE
  5
88
  8
0
 10
-28.1737046936118
 20
25.91562569105352
 30
0.0
 11
-28.3302557441134
 21
25.86813644906862
 31
0.0
  0
LINE
  5
89
  8
0
 10
-28.3302557441134
 20
25.86813644906862
 30
0.0
 11
-28.48336566176822
 21
25.81050995660907
 31
0.0
  0
LINE
  5
8A
  8
0
 10
-28.48336566176822
 20
25.81050995660907
 30
0.0
 11
-28.632378806403
 21
25.74299297916258
 31
0.0
  0
LINE
  5
8B
  8
0
 10
-28.632378806403
 20
25.74299297916258
 30
0.0
 11
-28.77665708085549
 21
25.66587463479195
 31
0.0
  0
LINE
  5
8C
  8
0
 10
-28.77665708085549
 20
25.66587463479195
 30
0.0
 11
-28.9155826634045
 21
25.57948515608722
 31
0.0
  0
LINE
  5
8D
  8
0
 10
-28.9155826634045
 20
25.57948515608722
 30
0.0
 11
-29.04856065337729
 21
25.48419447605895
 31
0.0
  0
LINE
  5
8E
  8
0
 10
-29.04856065337729
 20
25.48419447605895
 30
0.0
 11
-29.17502161860567
 21
25.3804106440283
 31
0.0
  0
LINE
  5
8F
  8
0
 10
-29.17502161860567
 20
25.3804106440283
 30
0.0
 11
-29.29442403382187
 21
25.26857807829723
 31
0.0
  0
LINE
  5
90
  8
0
 10
-29.29442403382187
 20
25.26857807829723
 30
0.0
 11
-29.40625659955294
 21
25.14917566308103
 31
0.0
  0
LINE
  5
91
  8
0
 10
-29.40625659955294
 20
25.14917566308103
 30
0.0
 11
-29.51004043158358
 21
25.02271469785266
 31
0.0
  0
LINE
  5
92
  8
0
 10
-29.51004043158358
 20
25.02271469785266
 30
0.0
 11
-29.60533111161186
 21
24.88973670787987
 31
0.0
  0
LINE
  5
93
  8
0
 10
-29.60533111161186
 20
24.88973670787987
 30
0.0
 11
-29.69172059031659
 21
24.75081112533086
 31
0.0
  0
LINE
  5
94
  8
0
 10
-29.69172059031659
 20
24.75081112533086
 30
0.0
 11
-29.76883893468722
 21
24.60653285087837
 31
0.0
  0
LINE
  5
95
  8
0
 10
-29.76883893468722
 20
24.60653285087837
 30
0.0
 11
-29.83635591213371
 21
24.45751970624358
 31
0.0
  0
LINE
  5
96
  8
0
 10
-29.83635591213371
 20
24.45751970624358
 30
0.0
 11
-29.89398240459326
 21
24.30440978858877
 31
0.0
  0
LINE
  5
97
  8
0
 10
-29.89398240459326
 20
24.30440978858877
 30
0.0
 11
-29.94147164657817
 21
24.14785873808716
 31
0.0
  0
LINE
  5
98
  8
0
 10
-29.94147164657817
 20
24.14785873808716
 30
0.0
 11
-29.97862028186357
 21
23.98853693037118
 31
0.0
  0
LINE
  5
99
  8
0
 10
-29.97862028186357
 20
23.98853693037118
 30
0.0
 11
-30.00526923429002
 21
23.82712660588099
 31
0.0
  0
LINE
  5
9A
  8
0
 10
-30.00526923429002
 20
23.82712660588099
 30
0.0
 11
-30.02130438895201
 21
23.66431894840622
 31
0.0
  0
LINE
  5
9B
  8
0
 10
-30.02130438895201
 20
23.66431894840622
 30
0.0
 11
-30.0266570808555
 21
23.50081112533086
 31
0.0
  0
LINE
  5
9C
  8
0
 10
-30.0266570808555
 20
23.50081112533086
 30
0.0
 11
-30.02130438895201
 21
23.33730330225551
 31
0.0
  0
LINE
  5
9D
  8
0
 10
-30.02130438895201
 20
23.33730330225551
 30
0.0
 11
-30.00526923429002
 21
23.17449564478073
 31
0.0
  0
LINE
  5
9E
  8
0
 10
-30.00526923429002
 20
23.17449564478073
 30
0.0
 11
-29.97862028186357
 21
23.01308532029054
 31
0.0
  0
LINE
  5
9F
  8
0
 10
-29.97862028186357
 20
23.01308532029054
 30
0.0
 11
-29.94147164657817
 21
22.85376351257456
 31
0.0
  0
LINE
  5
A0
  8
0
 10
-29.94147164657817
 20
22.85376351257456
 30
0.0
 11
-29.89398240459326
 21
22.69721246207296
 31
0.0
  0
LINE
  5
A1
  8
0
 10
-29.89398240459326
 20
22.69721246207296
 30
0.0
 11
-29.83635591213372
 21
22.54410254441814
 31
0.0
  0
LINE
  5
A2
  8
0
 10
-29.83635591213372
 20
22.54410254441814
 30
0.0
 11
-29.76883893468722
 21
22.39508939978336
 31
0.0
  0
LINE
  5
A3
  8
0
 10
-29.76883893468722
 20
22.39508939978336
 30
0.0
 11
-29.6917205903166
 21
22.25081112533086
 31
0.0
  0
LINE
  5
A4
  8
0
 10
-29.6917205903166
 20
22.25081112533086
 30
0.0
 11
-29.60533111161186
 21
22.11188554278186
 31
0.0
  0
LINE
  5
A5
  8
0
 10
-29.60533111161186
 20
22.11188554278186
 30
0.0
 11
-29.51004043158359
 21
21.97890755280906
 31
0.0
  0
LINE
  5
A6
  8
0
 10
-29.51004043158359
 20
21.97890755280906
 30
0.0
 11
-29.40625659955295
 21
21.85244658758069
 31
0.0
  0
LINE
  5
A7
  8
0
 10
-29.40625659955295
 20
21.85244658758069
 30
0.0
 11
-29.29442403382187
 21
21.73304417236449
 31
0.0
  0
LINE
  5
A8
  8
0
 10
-29.29442403382187
 20
21.73304417236449
 30
0.0
 11
-29.17502161860567
 21
21.62121160663342
 31
0.0
  0
LINE
  5
A9
  8
0
 10
-29.17502161860567
 20
21.62121160663342
 30
0.0
 11
-29.0485606533773
 21
21.51742777460277
 31
0.0
  0
LINE
  5
AA
  8
0
 10
-29.0485606533773
 20
21.51742777460277
 30
0.0
 11
-28.91558266340451
 21
21.4221370945745
 31
0.0
  0
LINE
  5
AB
  8
0
 10
-28.91558266340451
 20
21.4221370945745
 30
0.0
 11
-28.7766570808555
 21
21.33574761586977
 31
0.0
  0
LINE
  5
AC
  8
0
 10
-28.7766570808555
 20
21.33574761586977
 30
0.0
 11
-28.632378806403
 21
21.25862927149914
 31
0.0
  0
LINE
  5
AD
  8
0
 10
-28.632378806403
 20
21.25862927149914
 30
0.0
 11
-28.48336566176823
 21
21.19111229405264
 31
0.0
  0
LINE
  5
AE
  8
0
 10
-28.48336566176823
 20
21.19111229405264
 30
0.0
 11
-28.3302557441134
 21
21.1334858015931
 31
0.0
  0
LINE
  5
AF
  8
0
 10
-28.3302557441134
 20
21.1334858015931
 30
0.0
 11
-28.1737046936118
 21
21.08599655960819
 31
0.0
  0
LINE
  5
B0
  8
0
 10
-28.1737046936118
 20
21.08599655960819
 30
0.0
 11
-28.01438288589582
 21
21.04884792432278
 31
0.0
  0
LINE
  5
B1
  8
0
 10
-28.01438288589582
 20
21.04884792432278
 30
0.0
 11
-27.85297256140562
 21
21.02219897189633
 31
0.0
  0
LINE
  5
B2
  8
0
 10
-27.85297256140562
 20
21.02219897189633
 30
0.0
 11
-27.69016490393085
 21
21.00616381723435
 31
0.0
  0
LINE
  5
B3
  8
0
 10
-27.69016490393085
 20
21.00616381723435
 30
0.0
 11
-27.5266570808555
 21
21.00081112533086
 31
0.0
  0
LINE
  5
B4
  8
0
 10
-27.5266570808555
 20
21.00081112533086
 30
0.0
 11
-27.36314925778014
 21
21.00616381723435
 31
0.0
  0
LINE
  5
B5
  8
0
 10
-27.36314925778014
 20
21.00616381723435
 30
0.0
 11
-27.20034160030536
 21
21.02219897189633
 31
0.0
  0
LINE
  5
B6
  8
0
 10
-27.20034160030536
 20
21.02219897189633
 30
0.0
 11
-27.03893127581517
 21
21.04884792432278
 31
0.0
  0
LINE
  5
B7
  8
0
 10
-27.03893127581517
 20
21.04884792432278
 30
0.0
 11
-26.87960946809919
 21
21.08599655960819
 31
0.0
  0
LINE
  5
B8
  8
0
 10
-26.87960946809919
 20
21.08599655960819
 30
0.0
 11
-26.72305841759758
 21
21.1334858015931
 31
0.0
  0
LINE
  5
B9
  8
0
 10
-26.72305841759758
 20
21.1334858015931
 30
0.0
 11
-26.56994849994276
 21
21.19111229405264
 31
0.0
  0
LINE
  5
BA
  8
0
 10
-26.56994849994276
 20
21.19111229405264
 30
0.0
 11
-26.42093535530799
 21
21.25862927149914
 31
0.0
  0
LINE
  5
BB
  8
0
 10
-26.42093535530799
 20
21.25862927149914
 30
0.0
 11
-26.27665708085549
 21
21.33574761586977
 31
0.0
  0
LINE
  5
BC
  8
0
 10
-26.27665708085549
 20
21.33574761586977
 30
0.0
 11
-26.13773149830648
 21
21.4221370945745
 31
0.0
  0
LINE
  5
BD
  8
0
 10
-26.13773149830648
 20
21.4221370945745
 30
0.0
 11
-26.00475350833369
 21
21.51742777460277
 31
0.0
  0
LINE
  5
BE
  8
0
 10
-26.00475350833369
 20
21.51742777460277
 30
0.0
 11
-25.87829254310531
 21
21.62121160663342
 31
0.0
  0
LINE
  5
BF
  8
0
 10
-25.87829254310531
 20
21.62121160663342
 30
0.0
 11
-25.75889012788912
 21
21.7330441723645
 31
0.0
  0
LINE
  5
C0
  8
0
 10
-25.75889012788912
 20
21.7330441723645
 30
0.0
 11
-25.64705756215805
 21
21.85244658758069
 31
0.0
  0
LINE
  5
C1
  8
0
 10
-25.64705756215805
 20
21.85244658758069
 30
0.0
 11
-25.5432737301274
 21
21.97890755280907
 31
0.0
  0
LINE
  5
C2
  8
0
 10
-25.5432737301274
 20
21.97890755280907
 30
0.0
 11
-25.44798305009913
 21
22.11188554278186
 31
0.0
  0
LINE
  5
C3
  8
0
 10
-25.44798305009913
 20
22.11188554278186
 30
0.0
 11
-25.36159357139439
 21
22.25081112533087
 31
0.0
  0
LINE
  5
C4
  8
0
 10
-25.36159357139439
 20
22.25081112533087
 30
0.0
 11
-25.28447522702377
 21
22.39508939978337
 31
0.0
  0
LINE
  5
C5
  8
0
 10
-25.28447522702377
 20
22.39508939978337
 30
0.0
 11
-25.21695824957727
 21
22.54410254441815
 31
0.0
  0
LINE
  5
C6
  8
0
 10
-25.21695824957727
 20
22.54410254441815
 30
0.0
 11
-25.15933175711773
 21
22.69721246207297
 31
0.0
  0
LINE
  5
C7
  8
0
 10
-25.15933175711773
 20
22.69721246207297
 30
0.0
 11
-25.11184251513282
 21
22.85376351257458
 31
0.0
  0
LINE
  5
C8
  8
0
 10
-25.11184251513282
 20
22.85376351257458
 30
0.0
 11
-25.07469387984742
 21
23.01308532029056
 31
0.0
  0
LINE
  5
C9
  8
0
 10
-25.07469387984742
 20
23.01308532029056
 30
0.0
 11
-25.04804492742097
 21
23.17449564478075
 31
0.0
  0
LINE
  5
CA
  8
0
 10
-25.04804492742097
 20
23.17449564478075
 30
0.0
 11
-25.03200977275899
 21
23.33730330225552
 31
0.0
  0
LINE
  5
CB
  8
0
 10
-25.03200977275899
 20
23.33730330225552
 30
0.0
 11
-25.0266570808555
 21
23.50081112533086
 31
0.0
  0
LINE
  5
CC
  8
0
 10
27.0233429191445
 20
23.50081112533086
 30
0.0
 11
27.01799022724101
 21
23.66431894840622
 31
0.0
  0
LINE
  5
CD
  8
0
 10
27.01799022724101
 20
23.66431894840622
 30
0.0
 11
27.00195507257902
 21
23.82712660588099
 31
0.0
  0
LINE
  5
CE
  8
0
 10
27.00195507257902
 20
23.82712660588099
 30
0.0
 11
26.97530612015258
 21
23.98853693037118
 31
0.0
  0
LINE
  5
CF
  8
0
 10
26.97530612015258
 20
23.98853693037118
 30
0.0
 11
26.93815748486717
 21
24.14785873808716
 31
0.0
  0
LINE
  5
D0
  8
0
 10
26.93815748486717
 20
24.14785873808716
 30
0.0
 11
26.89066824288226
 21
24.30440978858876
 31
0.0
  0
LINE
  5
D1
  8
0
 10
26.89066824288226
 20
24.30440978858876
 30
0.0
 11
26.83304175042271
 21
24.45751970624358
 31
0.0
  0
LINE
  5
D2
  8
0
 10
26.83304175042271
 20
24.45751970624358
 30
0.0
 11
26.76552477297622
 21
24.60653285087836
 31
0.0
  0
LINE
  5
D3
  8
0
 10
26.76552477297622
 20
24.60653285087836
 30
0.0
 11
26.68840642860559
 21
24.75081112533086
 31
0.0
  0
LINE
  5
D4
  8
0
 10
26.68840642860559
 20
24.75081112533086
 30
0.0
 11
26.60201694990086
 21
24.88973670787986
 31
0.0
  0
LINE
  5
D5
  8
0
 10
26.60201694990086
 20
24.88973670787986
 30
0.0
 11
26.50672626987259
 21
25.02271469785266
 31
0.0
  0
LINE
  5
D6
  8
0
 10
26.50672626987259
 20
25.02271469785266
 30
0.0
 11
26.40294243784194
 21
25.14917566308103
 31
0.0
  0
LINE
  5
D7
  8
0
 10
26.40294243784194
 20
25.14917566308103
 30
0.0
 11
26.29110987211087
 21
25.26857807829722
 31
0.0
  0
LINE
  5
D8
  8
0
 10
26.29110987211087
 20
25.26857807829722
 30
0.0
 11
26.17170745689467
 21
25.3804106440283
 31
0.0
  0
LINE
  5
D9
  8
0
 10
26.17170745689467
 20
25.3804106440283
 30
0.0
 11
26.0452464916663
 21
25.48419447605894
 31
0.0
  0
LINE
  5
DA
  8
0
 10
26.0452464916663
 20
25.48419447605894
 30
0.0
 11
25.9122685016935
 21
25.57948515608722
 31
0.0
  0
LINE
  5
DB
  8
0
 10
25.9122685016935
 20
25.57948515608722
 30
0.0
 11
25.7733429191445
 21
25.66587463479195
 31
0.0
  0
LINE
  5
DC
  8
0
 10
25.7733429191445
 20
25.66587463479195
 30
0.0
 11
25.629064644692
 21
25.74299297916258
 31
0.0
  0
LINE
  5
DD
  8
0
 10
25.629064644692
 20
25.74299297916258
 30
0.0
 11
25.48005150005722
 21
25.81050995660907
 31
0.0
  0
LINE
  5
DE
  8
0
 10
25.48005150005722
 20
25.81050995660907
 30
0.0
 11
25.32694158240241
 21
25.86813644906862
 31
0.0
  0
LINE
  5
DF
  8
0
 10
25.32694158240241
 20
25.86813644906862
 30
0.0
 11
25.1703905319008
 21
25.91562569105352
 31
0.0
  0
LINE
  5
E0
  8
0
 10
25.1703905319008
 20
25.91562569105352
 30
0.0
 11
25.01106872418482
 21
25.95277432633893
 31
0.0
  0
LINE
  5
E1
  8
0
 10
25.01106872418482
 20
25.95277432633893
 30
0.0
 11
24.84965839969463
 21
25.97942327876538
 31
0.0
  0
LINE
  5
E2
  8
0
 10
24.84965839969463
 20
25.97942327876538
 30
0.0
 11
24.68685074221986
 21
25.99545843342737
 31
0.0
  0
LINE
  5
E3
  8
0
 10
24.68685074221986
 20
25.99545843342737
 30
0.0
 11
24.5233429191445
 21
26.00081112533086
 31
0.0
  0
LINE
  5
E4
  8
0
 10
24.5233429191445
 20
26.00081112533086
 30
0.0
 11
24.35983509606914
 21
25.99545843342737
 31
0.0
  0
LINE
  5
E5
  8
0
 10
24.35983509606914
 20
25.99545843342737
 30
0.0
 11
24.19702743859437
 21
25.97942327876538
 31
0.0
  0
LINE
  5
E6
  8
0
 10
24.19702743859437
 20
25.97942327876538
 30
0.0
 11
24.03561711410418
 21
25.95277432633893
 31
0.0
  0
LINE
  5
E7
  8
0
 10
24.03561711410418
 20
25.95277432633893
 30
0.0
 11
23.8762953063882
 21
25.91562569105352
 31
0.0
  0
LINE
  5
E8
  8
0
 10
23.8762953063882
 20
25.91562569105352
 30
0.0
 11
23.7197442558866
 21
25.86813644906862
 31
0.0
  0
LINE
  5
E9
  8
0
 10
23.7197442558866
 20
25.86813644906862
 30
0.0
 11
23.56663433823178
 21
25.81050995660907
 31
0.0
  0
LINE
  5
EA
  8
0
 10
23.56663433823178
 20
25.81050995660907
 30
0.0
 11
23.417621193597
 21
25.74299297916258
 31
0.0
  0
LINE
  5
EB
  8
0
 10
23.417621193597
 20
25.74299297916258
 30
0.0
 11
23.2733429191445
 21
25.66587463479195
 31
0.0
  0
LINE
  5
EC
  8
0
 10
23.2733429191445
 20
25.66587463479195
 30
0.0
 11
23.1344173365955
 21
25.57948515608722
 31
0.0
  0
LINE
  5
ED
  8
0
 10
23.1344173365955
 20
25.57948515608722
 30
0.0
 11
23.0014393466227
 21
25.48419447605895
 31
0.0
  0
LINE
  5
EE
  8
0
 10
23.0014393466227
 20
25.48419447605895
 30
0.0
 11
22.87497838139433
 21
25.3804106440283
 31
0.0
  0
LINE
  5
EF
  8
0
 10
22.87497838139433
 20
25.3804106440283
 30
0.0
 11
22.75557596617814
 21
25.26857807829723
 31
0.0
  0
LINE
  5
F0
  8
0
 10
22.75557596617814
 20
25.26857807829723
 30
0.0
 11
22.64374340044706
 21
25.14917566308103
 31
0.0
  0
LINE
  5
F1
  8
0
 10
22.64374340044706
 20
25.14917566308103
 30
0.0
 11
22.53995956841641
 21
25.02271469785266
 31
0.0
  0
LINE
  5
F2
  8
0
 10
22.53995956841641
 20
25.02271469785266
 30
0.0
 11
22.44466888838814
 21
24.88973670787987
 31
0.0
  0
LINE
  5
F3
  8
0
 10
22.44466888838814
 20
24.88973670787987
 30
0.0
 11
22.3582794096834
 21
24.75081112533086
 31
0.0
  0
LINE
  5
F4
  8
0
 10
22.3582794096834
 20
24.75081112533086
 30
0.0
 11
22.28116106531278
 21
24.60653285087837
 31
0.0
  0
LINE
  5
F5
  8
0
 10
22.28116106531278
 20
24.60653285087837
 30
0.0
 11
22.21364408786629
 21
24.45751970624358
 31
0.0
  0
LINE
  5
F6
  8
0
 10
22.21364408786629
 20
24.45751970624358
 30
0.0
 11
22.15601759540674
 21
24.30440978858877
 31
0.0
  0
LINE
  5
F7
  8
0
 10
22.15601759540674
 20
24.30440978858877
 30
0.0
 11
22.10852835342183
 21
24.14785873808716
 31
0.0
  0
LINE
  5
F8
  8
0
 10
22.10852835342183
 20
24.14785873808716
 30
0.0
 11
22.07137971813642
 21
23.98853693037118
 31
0.0
  0
LINE
  5
F9
  8
0
 10
22.07137971813642
 20
23.98853693037118
 30
0.0
 11
22.04473076570997
 21
23.82712660588099
 31
0.0
  0
LINE
  5
FA
  8
0
 10
22.04473076570997
 20
23.82712660588099
 30
0.0
 11
22.02869561104799
 21
23.66431894840622
 31
0.0
  0
LINE
  5
FB
  8
0
 10
22.02869561104799
 20
23.66431894840622
 30
0.0
 11
22.0233429191445
 21
23.50081112533086
 31
0.0
  0
LINE
  5
FC
  8
0
 10
22.0233429191445
 20
23.50081112533086
 30
0.0
 11
22.02869561104799
 21
23.33730330225551
 31
0.0
  0
LINE
  5
FD
  8
0
 10
22.02869561104799
 20
23.33730330225551
 30
0.0
 11
22.04473076570997
 21
23.17449564478073
 31
0.0
  0
LINE
  5
FE
  8
0
 10
22.04473076570997
 20
23.17449564478073
 30
0.0
 11
22.07137971813642
 21
23.01308532029054
 31
0.0
  0
LINE
  5
FF
  8
0
 10
22.07137971813642
 20
23.01308532029054
 30
0.0
 11
22.10852835342183
 21
22.85376351257456
 31
0.0
  0
LINE
  5
100
  8
0
 10
22.10852835342183
 20
22.85376351257456
 30
0.0
 11
22.15601759540673
 21
22.69721246207296
 31
0.0
  0
LINE
  5
101
  8
0
 10
22.15601759540673
 20
22.69721246207296
 30
0.0
 11
22.21364408786628
 21
22.54410254441814
 31
0.0
  0
LINE
  5
102
  8
0
 10
22.21364408786628
 20
22.54410254441814
 30
0.0
 11
22.28116106531278
 21
22.39508939978336
 31
0.0
  0
LINE
  5
103
  8
0
 10
22.28116106531278
 20
22.39508939978336
 30
0.0
 11
22.3582794096834
 21
22.25081112533086
 31
0.0
  0
LINE
  5
104
  8
0
 10
22.3582794096834
 20
22.25081112533086
 30
0.0
 11
22.44466888838813
 21
22.11188554278186
 31
0.0
  0
LINE
  5
105
  8
0
 10
22.44466888838813
 20
22.11188554278186
 30
0.0
 11
22.53995956841641
 21
21.97890755280906
 31
0.0
  0
LINE
  5
106
  8
0
 10
22.53995956841641
 20
21.97890755280906
 30
0.0
 11
22.64374340044705
 21
21.85244658758069
 31
0.0
  0
LINE
  5
107
  8
0
 10
22.64374340044705
 20
21.85244658758069
 30
0.0
 11
22.75557596617812
 21
21.73304417236449
 31
0.0
  0
LINE
  5
108
  8
0
 10
22.75557596617812
 20
21.73304417236449
 30
0.0
 11
22.87497838139432
 21
21.62121160663342
 31
0.0
  0
LINE
  5
109
  8
0
 10
22.87497838139432
 20
21.62121160663342
 30
0.0
 11
23.00143934662269
 21
21.51742777460277
 31
0.0
  0
LINE
  5
10A
  8
0
 10
23.00143934662269
 20
21.51742777460277
 30
0.0
 11
23.13441733659549
 21
21.4221370945745
 31
0.0
  0
LINE
  5
10B
  8
0
 10
23.13441733659549
 20
21.4221370945745
 30
0.0
 11
23.27334291914449
 21
21.33574761586977
 31
0.0
  0
LINE
  5
10C
  8
0
 10
23.27334291914449
 20
21.33574761586977
 30
0.0
 11
23.41762119359699
 21
21.25862927149914
 31
0.0
  0
LINE
  5
10D
  8
0
 10
23.41762119359699
 20
21.25862927149914
 30
0.0
 11
23.56663433823177
 21
21.19111229405264
 31
0.0
  0
LINE
  5
10E
  8
0
 10
23.56663433823177
 20
21.19111229405264
 30
0.0
 11
23.71974425588659
 21
21.1334858015931
 31
0.0
  0
LINE
  5
10F
  8
0
 10
23.71974425588659
 20
21.1334858015931
 30
0.0
 11
23.87629530638819
 21
21.08599655960819
 31
0.0
  0
LINE
  5
110
  8
0
 10
23.87629530638819
 20
21.08599655960819
 30
0.0
 11
24.03561711410418
 21
21.04884792432278
 31
0.0
  0
LINE
  5
111
  8
0
 10
24.03561711410418
 20
21.04884792432278
 30
0.0
 11
24.19702743859437
 21
21.02219897189633
 31
0.0
  0
LINE
  5
112
  8
0
 10
24.19702743859437
 20
21.02219897189633
 30
0.0
 11
24.35983509606914
 21
21.00616381723435
 31
0.0
  0
LINE
  5
113
  8
0
 10
24.35983509606914
 20
21.00616381723435
 30
0.0
 11
24.5233429191445
 21
21.00081112533086
 31
0.0
  0
LINE
  5
114
  8
0
 10
24.5233429191445
 20
21.00081112533086
 30
0.0
 11
24.68685074221986
 21
21.00616381723435
 31
0.0
  0
LINE
  5
115
  8
0
 10
24.68685074221986
 20
21.00616381723435
 30
0.0
 11
24.84965839969463
 21
21.02219897189633
 31
0.0
  0
LINE
  5
116
  8
0
 10
24.84965839969463
 20
21.02219897189633
 30
0.0
 11
25.01106872418482
 21
21.04884792432278
 31
0.0
  0
LINE
  5
117
  8
0
 10
25.01106872418482
 20
21.04884792432278
 30
0.0
 11
25.1703905319008
 21
21.08599655960819
 31
0.0
  0
LINE
  5
118
  8
0
 10
25.1703905319008
 20
21.08599655960819
 30
0.0
 11
25.32694158240241
 21
21.1334858015931
 31
0.0
  0
LINE
  5
119
  8
0
 10
25.32694158240241
 20
21.1334858015931
 30
0.0
 11
25.48005150005723
 21
21.19111229405264
 31
0.0
  0
LINE
  5
11A
  8
0
 10
25.48005150005723
 20
21.19111229405264
 30
0.0
 11
25.62906464469201
 21
21.25862927149914
 31
0.0
  0
LINE
  5
11B
  8
0
 10
25.62906464469201
 20
21.25862927149914
 30
0.0
 11
25.77334291914451
 21
21.33574761586977
 31
0.0
  0
LINE
  5
11C
  8
0
 10
25.77334291914451
 20
21.33574761586977
 30
0.0
 11
25.91226850169351
 21
21.4221370945745
 31
0.0
  0
LINE
  5
11D
  8
0
 10
25.91226850169351
 20
21.4221370945745
 30
0.0
 11
26.0452464916663
 21
21.51742777460277
 31
0.0
  0
LINE
  5
11E
  8
0
 10
26.0452464916663
 20
21.51742777460277
 30
0.0
 11
26.17170745689468
 21
21.62121160663342
 31
0.0
  0
LINE
  5
11F
  8
0
 10
26.17170745689468
 20
21.62121160663342
 30
0.0
 11
26.29110987211088
 21
21.7330441723645
 31
0.0
  0
LINE
  5
120
  8
0
 10
26.29110987211088
 20
21.7330441723645
 30
0.0
 11
26.40294243784195
 21
21.85244658758069
 31
0.0
  0
LINE
  5
121
  8
0
 10
26.40294243784195
 20
21.85244658758069
 30
0.0
 11
26.5067262698726
 21
21.97890755280907
 31
0.0
  0
LINE
  5
122
  8
0
 10
26.5067262698726
 20
21.97890755280907
 30
0.0
 11
26.60201694990087
 21
22.11188554278186
 31
0.0
  0
LINE
  5
123
  8
0
 10
26.60201694990087
 20
22.11188554278186
 30
0.0
 11
26.68840642860561
 21
22.25081112533087
 31
0.0
  0
LINE
  5
124
  8
0
 10
26.68840642860561
 20
22.25081112533087
 30
0.0
 11
26.76552477297622
 21
22.39508939978337
 31
0.0
  0
LINE
  5
125
  8
0
 10
26.76552477297622
 20
22.39508939978337
 30
0.0
 11
26.83304175042272
 21
22.54410254441815
 31
0.0
  0
LINE
  5
126
  8
0
 10
26.83304175042272
 20
22.54410254441815
 30
0.0
 11
26.89066824288227
 21
22.69721246207297
 31
0.0
  0
LINE
  5
127
  8
0
 10
26.89066824288227
 20
22.69721246207297
 30
0.0
 11
26.93815748486717
 21
22.85376351257458
 31
0.0
  0
LINE
  5
128
  8
0
 10
26.93815748486717
 20
22.85376351257458
 30
0.0
 11
26.97530612015258
 21
23.01308532029056
 31
0.0
  0
LINE
  5
129
  8
0
 10
26.97530612015258
 20
23.01308532029056
 30
0.0
 11
27.00195507257902
 21
23.17449564478075
 31
0.0
  0
LINE
  5
12A
  8
0
 10
27.00195507257902
 20
23.17449564478075
 30
0.0
 11
27.01799022724101
 21
23.33730330225552
 31
0.0
  0
LINE
  5
12B
  8
0
 10
27.01799022724101
 20
23.33730330225552
 30
0.0
 11
27.0233429191445
 21
23.50081112533086
 31
0.0
  0
LINE
  5
12C
  8
0
 10
-7.676657080855498
 20
23.50081112533086
 30
0.0
 11
-7.682009772758989
 21
23.66431894840622
 31
0.0
  0
LINE
  5
12D
  8
0
 10
-7.682009772758989
 20
23.66431894840622
 30
0.0
 11
-7.698044927420971
 21
23.82712660588099
 31
0.0
  0
LINE
  5
12E
  8
0
 10
-7.698044927420971
 20
23.82712660588099
 30
0.0
 11
-7.724693879847421
 21
23.98853693037118
 31
0.0
  0
LINE
  5
12F
  8
0
 10
-7.724693879847421
 20
23.98853693037118
 30
0.0
 11
-7.761842515132827
 21
24.14785873808716
 31
0.0
  0
LINE
  5
130
  8
0
 10
-7.761842515132827
 20
24.14785873808716
 30
0.0
 11
-7.809331757117733
 21
24.30440978858876
 31
0.0
  0
LINE
  5
131
  8
0
 10
-7.809331757117733
 20
24.30440978858876
 30
0.0
 11
-7.866958249577281
 21
24.45751970624358
 31
0.0
  0
LINE
  5
132
  8
0
 10
-7.866958249577281
 20
24.45751970624358
 30
0.0
 11
-7.934475227023777
 21
24.60653285087836
 31
0.0
  0
LINE
  5
133
  8
0
 10
-7.934475227023777
 20
24.60653285087836
 30
0.0
 11
-8.011593571394402
 21
24.75081112533086
 31
0.0
  0
LINE
  5
134
  8
0
 10
-8.011593571394402
 20
24.75081112533086
 30
0.0
 11
-8.097983050099135
 21
24.88973670787986
 31
0.0
  0
LINE
  5
135
  8
0
 10
-8.097983050099135
 20
24.88973670787986
 30
0.0
 11
-8.19327373012741
 21
25.02271469785266
 31
0.0
  0
LINE
  5
136
  8
0
 10
-8.19327373012741
 20
25.02271469785266
 30
0.0
 11
-8.297057562158054
 21
25.14917566308103
 31
0.0
  0
LINE
  5
137
  8
0
 10
-8.297057562158054
 20
25.14917566308103
 30
0.0
 11
-8.40889012788913
 21
25.26857807829723
 31
0.0
  0
LINE
  5
138
  8
0
 10
-8.40889012788913
 20
25.26857807829723
 30
0.0
 11
-8.528292543105325
 21
25.3804106440283
 31
0.0
  0
LINE
  5
139
  8
0
 10
-8.528292543105325
 20
25.3804106440283
 30
0.0
 11
-8.654753508333698
 21
25.48419447605895
 31
0.0
  0
LINE
  5
13A
  8
0
 10
-8.654753508333698
 20
25.48419447605895
 30
0.0
 11
-8.787731498306492
 21
25.57948515608722
 31
0.0
  0
LINE
  5
13B
  8
0
 10
-8.787731498306492
 20
25.57948515608722
 30
0.0
 11
-8.926657080855499
 21
25.66587463479195
 31
0.0
  0
LINE
  5
13C
  8
0
 10
-8.926657080855499
 20
25.66587463479195
 30
0.0
 11
-9.070935355307995
 21
25.74299297916258
 31
0.0
  0
LINE
  5
13D
  8
0
 10
-9.070935355307995
 20
25.74299297916258
 30
0.0
 11
-9.219948499942774
 21
25.81050995660907
 31
0.0
  0
LINE
  5
13E
  8
0
 10
-9.219948499942774
 20
25.81050995660907
 30
0.0
 11
-9.373058417597594
 21
25.86813644906862
 31
0.0
  0
LINE
  5
13F
  8
0
 10
-9.373058417597594
 20
25.86813644906862
 30
0.0
 11
-9.529609468099196
 21
25.91562569105353
 31
0.0
  0
LINE
  5
140
  8
0
 10
-9.529609468099196
 20
25.91562569105353
 30
0.0
 11
-9.688931275815177
 21
25.95277432633893
 31
0.0
  0
LINE
  5
141
  8
0
 10
-9.688931275815177
 20
25.95277432633893
 30
0.0
 11
-9.850341600305368
 21
25.97942327876538
 31
0.0
  0
LINE
  5
142
  8
0
 10
-9.850341600305368
 20
25.97942327876538
 30
0.0
 11
-10.01314925778014
 21
25.99545843342737
 31
0.0
  0
LINE
  5
143
  8
0
 10
-10.01314925778014
 20
25.99545843342737
 30
0.0
 11
-10.1766570808555
 21
26.00081112533086
 31
0.0
  0
LINE
  5
144
  8
0
 10
-10.1766570808555
 20
26.00081112533086
 30
0.0
 11
-10.34016490393086
 21
25.99545843342737
 31
0.0
  0
LINE
  5
145
  8
0
 10
-10.34016490393086
 20
25.99545843342737
 30
0.0
 11
-10.50297256140563
 21
25.97942327876538
 31
0.0
  0
LINE
  5
146
  8
0
 10
-10.50297256140563
 20
25.97942327876538
 30
0.0
 11
-10.66438288589582
 21
25.95277432633893
 31
0.0
  0
LINE
  5
147
  8
0
 10
-10.66438288589582
 20
25.95277432633893
 30
0.0
 11
-10.8237046936118
 21
25.91562569105353
 31
0.0
  0
LINE
  5
148
  8
0
 10
-10.8237046936118
 20
25.91562569105353
 30
0.0
 11
-10.9802557441134
 21
25.86813644906862
 31
0.0
  0
LINE
  5
149
  8
0
 10
-10.9802557441134
 20
25.86813644906862
 30
0.0
 11
-11.13336566176822
 21
25.81050995660907
 31
0.0
  0
LINE
  5
14A
  8
0
 10
-11.13336566176822
 20
25.81050995660907
 30
0.0
 11
-11.282378806403
 21
25.74299297916258
 31
0.0
  0
LINE
  5
14B
  8
0
 10
-11.282378806403
 20
25.74299297916258
 30
0.0
 11
-11.4266570808555
 21
25.66587463479195
 31
0.0
  0
LINE
  5
14C
  8
0
 10
-11.4266570808555
 20
25.66587463479195
 30
0.0
 11
-11.5655826634045
 21
25.57948515608722
 31
0.0
  0
LINE
  5
14D
  8
0
 10
-11.5655826634045
 20
25.57948515608722
 30
0.0
 11
-11.6985606533773
 21
25.48419447605895
 31
0.0
  0
LINE
  5
14E
  8
0
 10
-11.6985606533773
 20
25.48419447605895
 30
0.0
 11
-11.82502161860567
 21
25.3804106440283
 31
0.0
  0
LINE
  5
14F
  8
0
 10
-11.82502161860567
 20
25.3804106440283
 30
0.0
 11
-11.94442403382186
 21
25.26857807829723
 31
0.0
  0
LINE
  5
150
  8
0
 10
-11.94442403382186
 20
25.26857807829723
 30
0.0
 11
-12.05625659955294
 21
25.14917566308103
 31
0.0
  0
LINE
  5
151
  8
0
 10
-12.05625659955294
 20
25.14917566308103
 30
0.0
 11
-12.16004043158358
 21
25.02271469785266
 31
0.0
  0
LINE
  5
152
  8
0
 10
-12.16004043158358
 20
25.02271469785266
 30
0.0
 11
-12.25533111161186
 21
24.88973670787987
 31
0.0
  0
LINE
  5
153
  8
0
 10
-12.25533111161186
 20
24.88973670787987
 30
0.0
 11
-12.34172059031659
 21
24.75081112533086
 31
0.0
  0
LINE
  5
154
  8
0
 10
-12.34172059031659
 20
24.75081112533086
 30
0.0
 11
-12.41883893468722
 21
24.60653285087837
 31
0.0
  0
LINE
  5
155
  8
0
 10
-12.41883893468722
 20
24.60653285087837
 30
0.0
 11
-12.48635591213371
 21
24.45751970624358
 31
0.0
  0
LINE
  5
156
  8
0
 10
-12.48635591213371
 20
24.45751970624358
 30
0.0
 11
-12.54398240459326
 21
24.30440978858877
 31
0.0
  0
LINE
  5
157
  8
0
 10
-12.54398240459326
 20
24.30440978858877
 30
0.0
 11
-12.59147164657817
 21
24.14785873808716
 31
0.0
  0
LINE
  5
158
  8
0
 10
-12.59147164657817
 20
24.14785873808716
 30
0.0
 11
-12.62862028186357
 21
23.98853693037118
 31
0.0
  0
LINE
  5
159
  8
0
 10
-12.62862028186357
 20
23.98853693037118
 30
0.0
 11
-12.65526923429002
 21
23.82712660588099
 31
0.0
  0
LINE
  5
15A
  8
0
 10
-12.65526923429002
 20
23.82712660588099
 30
0.0
 11
-12.67130438895201
 21
23.66431894840622
 31
0.0
  0
LINE
  5
15B
  8
0
 10
-12.67130438895201
 20
23.66431894840622
 30
0.0
 11
-12.6766570808555
 21
23.50081112533086
 31
0.0
  0
LINE
  5
15C
  8
0
 10
-12.6766570808555
 20
23.50081112533086
 30
0.0
 11
-12.67130438895201
 21
23.33730330225551
 31
0.0
  0
LINE
  5
15D
  8
0
 10
-12.67130438895201
 20
23.33730330225551
 30
0.0
 11
-12.65526923429003
 21
23.17449564478073
 31
0.0
  0
LINE
  5
15E
  8
0
 10
-12.65526923429003
 20
23.17449564478073
 30
0.0
 11
-12.62862028186358
 21
23.01308532029054
 31
0.0
  0
LINE
  5
15F
  8
0
 10
-12.62862028186358
 20
23.01308532029054
 30
0.0
 11
-12.59147164657817
 21
22.85376351257456
 31
0.0
  0
LINE
  5
160
  8
0
 10
-12.59147164657817
 20
22.85376351257456
 30
0.0
 11
-12.54398240459327
 21
22.69721246207296
 31
0.0
  0
LINE
  5
161
  8
0
 10
-12.54398240459327
 20
22.69721246207296
 30
0.0
 11
-12.48635591213372
 21
22.54410254441814
 31
0.0
  0
LINE
  5
162
  8
0
 10
-12.48635591213372
 20
22.54410254441814
 30
0.0
 11
-12.41883893468722
 21
22.39508939978336
 31
0.0
  0
LINE
  5
163
  8
0
 10
-12.41883893468722
 20
22.39508939978336
 30
0.0
 11
-12.3417205903166
 21
22.25081112533086
 31
0.0
  0
LINE
  5
164
  8
0
 10
-12.3417205903166
 20
22.25081112533086
 30
0.0
 11
-12.25533111161187
 21
22.11188554278186
 31
0.0
  0
LINE
  5
165
  8
0
 10
-12.25533111161187
 20
22.11188554278186
 30
0.0
 11
-12.16004043158359
 21
21.97890755280906
 31
0.0
  0
LINE
  5
166
  8
0
 10
-12.16004043158359
 20
21.97890755280906
 30
0.0
 11
-12.05625659955295
 21
21.85244658758069
 31
0.0
  0
LINE
  5
167
  8
0
 10
-12.05625659955295
 20
21.85244658758069
 30
0.0
 11
-11.94442403382187
 21
21.73304417236449
 31
0.0
  0
LINE
  5
168
  8
0
 10
-11.94442403382187
 20
21.73304417236449
 30
0.0
 11
-11.82502161860568
 21
21.62121160663342
 31
0.0
  0
LINE
  5
169
  8
0
 10
-11.82502161860568
 20
21.62121160663342
 30
0.0
 11
-11.69856065337731
 21
21.51742777460277
 31
0.0
  0
LINE
  5
16A
  8
0
 10
-11.69856065337731
 20
21.51742777460277
 30
0.0
 11
-11.56558266340451
 21
21.4221370945745
 31
0.0
  0
LINE
  5
16B
  8
0
 10
-11.56558266340451
 20
21.4221370945745
 30
0.0
 11
-11.4266570808555
 21
21.33574761586976
 31
0.0
  0
LINE
  5
16C
  8
0
 10
-11.4266570808555
 20
21.33574761586976
 30
0.0
 11
-11.28237880640301
 21
21.25862927149914
 31
0.0
  0
LINE
  5
16D
  8
0
 10
-11.28237880640301
 20
21.25862927149914
 30
0.0
 11
-11.13336566176823
 21
21.19111229405264
 31
0.0
  0
LINE
  5
16E
  8
0
 10
-11.13336566176823
 20
21.19111229405264
 30
0.0
 11
-10.98025574411341
 21
21.13348580159309
 31
0.0
  0
LINE
  5
16F
  8
0
 10
-10.98025574411341
 20
21.13348580159309
 30
0.0
 11
-10.8237046936118
 21
21.08599655960819
 31
0.0
  0
LINE
  5
170
  8
0
 10
-10.8237046936118
 20
21.08599655960819
 30
0.0
 11
-10.66438288589582
 21
21.04884792432278
 31
0.0
  0
LINE
  5
171
  8
0
 10
-10.66438288589582
 20
21.04884792432278
 30
0.0
 11
-10.50297256140563
 21
21.02219897189633
 31
0.0
  0
LINE
  5
172
  8
0
 10
-10.50297256140563
 20
21.02219897189633
 30
0.0
 11
-10.34016490393086
 21
21.00616381723435
 31
0.0
  0
LINE
  5
173
  8
0
 10
-10.34016490393086
 20
21.00616381723435
 30
0.0
 11
-10.1766570808555
 21
21.00081112533086
 31
0.0
  0
LINE
  5
174
  8
0
 10
-10.1766570808555
 20
21.00081112533086
 30
0.0
 11
-10.01314925778014
 21
21.00616381723435
 31
0.0
  0
LINE
  5
175
  8
0
 10
-10.01314925778014
 20
21.00616381723435
 30
0.0
 11
-9.850341600305367
 21
21.02219897189633
 31
0.0
  0
LINE
  5
176
  8
0
 10
-9.850341600305367
 20
21.02219897189633
 30
0.0
 11
-9.688931275815174
 21
21.04884792432278
 31
0.0
  0
LINE
  5
177
  8
0
 10
-9.688931275815174
 20
21.04884792432278
 30
0.0
 11
-9.529609468099192
 21
21.08599655960819
 31
0.0
  0
LINE
  5
178
  8
0
 10
-9.529609468099192
 20
21.08599655960819
 30
0.0
 11
-9.373058417597589
 21
21.1334858015931
 31
0.0
  0
LINE
  5
179
  8
0
 10
-9.373058417597589
 20
21.1334858015931
 30
0.0
 11
-9.219948499942767
 21
21.19111229405264
 31
0.0
  0
LINE
  5
17A
  8
0
 10
-9.219948499942767
 20
21.19111229405264
 30
0.0
 11
-9.070935355307988
 21
21.25862927149914
 31
0.0
  0
LINE
  5
17B
  8
0
 10
-9.070935355307988
 20
21.25862927149914
 30
0.0
 11
-8.926657080855492
 21
21.33574761586977
 31
0.0
  0
LINE
  5
17C
  8
0
 10
-8.926657080855492
 20
21.33574761586977
 30
0.0
 11
-8.787731498306485
 21
21.4221370945745
 31
0.0
  0
LINE
  5
17D
  8
0
 10
-8.787731498306485
 20
21.4221370945745
 30
0.0
 11
-8.654753508333688
 21
21.51742777460277
 31
0.0
  0
LINE
  5
17E
  8
0
 10
-8.654753508333688
 20
21.51742777460277
 30
0.0
 11
-8.528292543105318
 21
21.62121160663342
 31
0.0
  0
LINE
  5
17F
  8
0
 10
-8.528292543105318
 20
21.62121160663342
 30
0.0
 11
-8.408890127889121
 21
21.7330441723645
 31
0.0
  0
LINE
  5
180
  8
0
 10
-8.408890127889121
 20
21.7330441723645
 30
0.0
 11
-8.297057562158045
 21
21.85244658758069
 31
0.0
  0
LINE
  5
181
  8
0
 10
-8.297057562158045
 20
21.85244658758069
 30
0.0
 11
-8.193273730127402
 21
21.97890755280907
 31
0.0
  0
LINE
  5
182
  8
0
 10
-8.193273730127402
 20
21.97890755280907
 30
0.0
 11
-8.097983050099126
 21
22.11188554278186
 31
0.0
  0
LINE
  5
183
  8
0
 10
-8.097983050099126
 20
22.11188554278186
 30
0.0
 11
-8.011593571394394
 21
22.25081112533087
 31
0.0
  0
LINE
  5
184
  8
0
 10
-8.011593571394394
 20
22.25081112533087
 30
0.0
 11
-7.93447522702377
 21
22.39508939978337
 31
0.0
  0
LINE
  5
185
  8
0
 10
-7.93447522702377
 20
22.39508939978337
 30
0.0
 11
-7.866958249577275
 21
22.54410254441815
 31
0.0
  0
LINE
  5
186
  8
0
 10
-7.866958249577275
 20
22.54410254441815
 30
0.0
 11
-7.809331757117727
 21
22.69721246207297
 31
0.0
  0
LINE
  5
187
  8
0
 10
-7.809331757117727
 20
22.69721246207297
 30
0.0
 11
-7.761842515132821
 21
22.85376351257458
 31
0.0
  0
LINE
  5
188
  8
0
 10
-7.761842515132821
 20
22.85376351257458
 30
0.0
 11
-7.724693879847418
 21
23.01308532029056
 31
0.0
  0
LINE
  5
189
  8
0
 10
-7.724693879847418
 20
23.01308532029056
 30
0.0
 11
-7.698044927420969
 21
23.17449564478075
 31
0.0
  0
LINE
  5
18A
  8
0
 10
-7.698044927420969
 20
23.17449564478075
 30
0.0
 11
-7.682009772758988
 21
23.33730330225552
 31
0.0
  0
LINE
  5
18B
  8
0
 10
-7.682009772758988
 20
23.33730330225552
 30
0.0
 11
-7.676657080855498
 21
23.50081112533086
 31
0.0
  0
LINE
  5
18C
  8
0
 10
9.673342919144503
 20
23.50081112533086
 30
0.0
 11
9.66799022724101
 21
23.66431894840622
 31
0.0
  0
LINE
  5
18D
  8
0
 10
9.66799022724101
 20
23.66431894840622
 30
0.0
 11
9.651955072579028
 21
23.82712660588099
 31
0.0
  0
LINE
  5
18E
  8
0
 10
9.651955072579028
 20
23.82712660588099
 30
0.0
 11
9.625306120152576
 21
23.98853693037118
 31
0.0
  0
LINE
  5
18F
  8
0
 10
9.625306120152576
 20
23.98853693037118
 30
0.0
 11
9.588157484867173
 21
24.14785873808716
 31
0.0
  0
LINE
  5
190
  8
0
 10
9.588157484867173
 20
24.14785873808716
 30
0.0
 11
9.540668242882266
 21
24.30440978858876
 31
0.0
  0
LINE
  5
191
  8
0
 10
9.540668242882266
 20
24.30440978858876
 30
0.0
 11
9.483041750422718
 21
24.45751970624358
 31
0.0
  0
LINE
  5
192
  8
0
 10
9.483041750422718
 20
24.45751970624358
 30
0.0
 11
9.415524772976223
 21
24.60653285087836
 31
0.0
  0
LINE
  5
193
  8
0
 10
9.415524772976223
 20
24.60653285087836
 30
0.0
 11
9.338406428605596
 21
24.75081112533086
 31
0.0
  0
LINE
  5
194
  8
0
 10
9.338406428605596
 20
24.75081112533086
 30
0.0
 11
9.252016949900865
 21
24.88973670787986
 31
0.0
  0
LINE
  5
195
  8
0
 10
9.252016949900865
 20
24.88973670787986
 30
0.0
 11
9.156726269872589
 21
25.02271469785266
 31
0.0
  0
LINE
  5
196
  8
0
 10
9.156726269872589
 20
25.02271469785266
 30
0.0
 11
9.052942437841944
 21
25.14917566308103
 31
0.0
  0
LINE
  5
197
  8
0
 10
9.052942437841944
 20
25.14917566308103
 30
0.0
 11
8.94110987211087
 21
25.26857807829723
 31
0.0
  0
LINE
  5
198
  8
0
 10
8.94110987211087
 20
25.26857807829723
 30
0.0
 11
8.821707456894673
 21
25.3804106440283
 31
0.0
  0
LINE
  5
199
  8
0
 10
8.821707456894673
 20
25.3804106440283
 30
0.0
 11
8.695246491666301
 21
25.48419447605895
 31
0.0
  0
LINE
  5
19A
  8
0
 10
8.695246491666301
 20
25.48419447605895
 30
0.0
 11
8.562268501693506
 21
25.57948515608722
 31
0.0
  0
LINE
  5
19B
  8
0
 10
8.562268501693506
 20
25.57948515608722
 30
0.0
 11
8.4233429191445
 21
25.66587463479195
 31
0.0
  0
LINE
  5
19C
  8
0
 10
8.4233429191445
 20
25.66587463479195
 30
0.0
 11
8.279064644692005
 21
25.74299297916258
 31
0.0
  0
LINE
  5
19D
  8
0
 10
8.279064644692005
 20
25.74299297916258
 30
0.0
 11
8.130051500057226
 21
25.81050995660907
 31
0.0
  0
LINE
  5
19E
  8
0
 10
8.130051500057226
 20
25.81050995660907
 30
0.0
 11
7.976941582402405
 21
25.86813644906862
 31
0.0
  0
LINE
  5
19F
  8
0
 10
7.976941582402405
 20
25.86813644906862
 30
0.0
 11
7.820390531900803
 21
25.91562569105353
 31
0.0
  0
LINE
  5
1A0
  8
0
 10
7.820390531900803
 20
25.91562569105353
 30
0.0
 11
7.661068724184823
 21
25.95277432633893
 31
0.0
  0
LINE
  5
1A1
  8
0
 10
7.661068724184823
 20
25.95277432633893
 30
0.0
 11
7.49965839969463
 21
25.97942327876538
 31
0.0
  0
LINE
  5
1A2
  8
0
 10
7.49965839969463
 20
25.97942327876538
 30
0.0
 11
7.33685074221986
 21
25.99545843342737
 31
0.0
  0
LINE
  5
1A3
  8
0
 10
7.33685074221986
 20
25.99545843342737
 30
0.0
 11
7.173342919144502
 21
26.00081112533086
 31
0.0
  0
LINE
  5
1A4
  8
0
 10
7.173342919144502
 20
26.00081112533086
 30
0.0
 11
7.009835096069144
 21
25.99545843342737
 31
0.0
  0
LINE
  5
1A5
  8
0
 10
7.009835096069144
 20
25.99545843342737
 30
0.0
 11
6.847027438594374
 21
25.97942327876538
 31
0.0
  0
LINE
  5
1A6
  8
0
 10
6.847027438594374
 20
25.97942327876538
 30
0.0
 11
6.685617114104182
 21
25.95277432633893
 31
0.0
  0
LINE
  5
1A7
  8
0
 10
6.685617114104182
 20
25.95277432633893
 30
0.0
 11
6.526295306388201
 21
25.91562569105353
 31
0.0
  0
LINE
  5
1A8
  8
0
 10
6.526295306388201
 20
25.91562569105353
 30
0.0
 11
6.369744255886599
 21
25.86813644906862
 31
0.0
  0
LINE
  5
1A9
  8
0
 10
6.369744255886599
 20
25.86813644906862
 30
0.0
 11
6.216634338231778
 21
25.81050995660907
 31
0.0
  0
LINE
  5
1AA
  8
0
 10
6.216634338231778
 20
25.81050995660907
 30
0.0
 11
6.067621193597001
 21
25.74299297916258
 31
0.0
  0
LINE
  5
1AB
  8
0
 10
6.067621193597001
 20
25.74299297916258
 30
0.0
 11
5.923342919144503
 21
25.66587463479195
 31
0.0
  0
LINE
  5
1AC
  8
0
 10
5.923342919144503
 20
25.66587463479195
 30
0.0
 11
5.784417336595498
 21
25.57948515608722
 31
0.0
  0
LINE
  5
1AD
  8
0
 10
5.784417336595498
 20
25.57948515608722
 30
0.0
 11
5.651439346622701
 21
25.48419447605895
 31
0.0
  0
LINE
  5
1AE
  8
0
 10
5.651439346622701
 20
25.48419447605895
 30
0.0
 11
5.52497838139433
 21
25.3804106440283
 31
0.0
  0
LINE
  5
1AF
  8
0
 10
5.52497838139433
 20
25.3804106440283
 30
0.0
 11
5.405575966178135
 21
25.26857807829723
 31
0.0
  0
LINE
  5
1B0
  8
0
 10
5.405575966178135
 20
25.26857807829723
 30
0.0
 11
5.29374340044706
 21
25.14917566308103
 31
0.0
  0
LINE
  5
1B1
  8
0
 10
5.29374340044706
 20
25.14917566308103
 30
0.0
 11
5.189959568416415
 21
25.02271469785266
 31
0.0
  0
LINE
  5
1B2
  8
0
 10
5.189959568416415
 20
25.02271469785266
 30
0.0
 11
5.094668888388139
 21
24.88973670787987
 31
0.0
  0
LINE
  5
1B3
  8
0
 10
5.094668888388139
 20
24.88973670787987
 30
0.0
 11
5.008279409683405
 21
24.75081112533086
 31
0.0
  0
LINE
  5
1B4
  8
0
 10
5.008279409683405
 20
24.75081112533086
 30
0.0
 11
4.931161065312782
 21
24.60653285087837
 31
0.0
  0
LINE
  5
1B5
  8
0
 10
4.931161065312782
 20
24.60653285087837
 30
0.0
 11
4.863644087866286
 21
24.45751970624358
 31
0.0
  0
LINE
  5
1B6
  8
0
 10
4.863644087866286
 20
24.45751970624358
 30
0.0
 11
4.806017595406738
 21
24.30440978858877
 31
0.0
  0
LINE
  5
1B7
  8
0
 10
4.806017595406738
 20
24.30440978858877
 30
0.0
 11
4.758528353421831
 21
24.14785873808716
 31
0.0
  0
LINE
  5
1B8
  8
0
 10
4.758528353421831
 20
24.14785873808716
 30
0.0
 11
4.721379718136425
 21
23.98853693037118
 31
0.0
  0
LINE
  5
1B9
  8
0
 10
4.721379718136425
 20
23.98853693037118
 30
0.0
 11
4.694730765709975
 21
23.82712660588099
 31
0.0
  0
LINE
  5
1BA
  8
0
 10
4.694730765709975
 20
23.82712660588099
 30
0.0
 11
4.678695611047991
 21
23.66431894840622
 31
0.0
  0
LINE
  5
1BB
  8
0
 10
4.678695611047991
 20
23.66431894840622
 30
0.0
 11
4.6733429191445
 21
23.50081112533086
 31
0.0
  0
LINE
  5
1BC
  8
0
 10
4.6733429191445
 20
23.50081112533086
 30
0.0
 11
4.678695611047991
 21
23.33730330225551
 31
0.0
  0
LINE
  5
1BD
  8
0
 10
4.678695611047991
 20
23.33730330225551
 30
0.0
 11
4.694730765709973
 21
23.17449564478073
 31
0.0
  0
LINE
  5
1BE
  8
0
 10
4.694730765709973
 20
23.17449564478073
 30
0.0
 11
4.721379718136422
 21
23.01308532029054
 31
0.0
  0
LINE
  5
1BF
  8
0
 10
4.721379718136422
 20
23.01308532029054
 30
0.0
 11
4.758528353421828
 21
22.85376351257456
 31
0.0
  0
LINE
  5
1C0
  8
0
 10
4.758528353421828
 20
22.85376351257456
 30
0.0
 11
4.806017595406733
 21
22.69721246207296
 31
0.0
  0
LINE
  5
1C1
  8
0
 10
4.806017595406733
 20
22.69721246207296
 30
0.0
 11
4.863644087866279
 21
22.54410254441814
 31
0.0
  0
LINE
  5
1C2
  8
0
 10
4.863644087866279
 20
22.54410254441814
 30
0.0
 11
4.931161065312776
 21
22.39508939978336
 31
0.0
  0
LINE
  5
1C3
  8
0
 10
4.931161065312776
 20
22.39508939978336
 30
0.0
 11
5.0082794096834
 21
22.25081112533086
 31
0.0
  0
LINE
  5
1C4
  8
0
 10
5.0082794096834
 20
22.25081112533086
 30
0.0
 11
5.094668888388132
 21
22.11188554278186
 31
0.0
  0
LINE
  5
1C5
  8
0
 10
5.094668888388132
 20
22.11188554278186
 30
0.0
 11
5.189959568416406
 21
21.97890755280906
 31
0.0
  0
LINE
  5
1C6
  8
0
 10
5.189959568416406
 20
21.97890755280906
 30
0.0
 11
5.293743400447052
 21
21.85244658758069
 31
0.0
  0
LINE
  5
1C7
  8
0
 10
5.293743400447052
 20
21.85244658758069
 30
0.0
 11
5.405575966178126
 21
21.73304417236449
 31
0.0
  0
LINE
  5
1C8
  8
0
 10
5.405575966178126
 20
21.73304417236449
 30
0.0
 11
5.524978381394322
 21
21.62121160663342
 31
0.0
  0
LINE
  5
1C9
  8
0
 10
5.524978381394322
 20
21.62121160663342
 30
0.0
 11
5.651439346622692
 21
21.51742777460277
 31
0.0
  0
LINE
  5
1CA
  8
0
 10
5.651439346622692
 20
21.51742777460277
 30
0.0
 11
5.784417336595489
 21
21.4221370945745
 31
0.0
  0
LINE
  5
1CB
  8
0
 10
5.784417336595489
 20
21.4221370945745
 30
0.0
 11
5.923342919144496
 21
21.33574761586976
 31
0.0
  0
LINE
  5
1CC
  8
0
 10
5.923342919144496
 20
21.33574761586976
 30
0.0
 11
6.067621193596993
 21
21.25862927149914
 31
0.0
  0
LINE
  5
1CD
  8
0
 10
6.067621193596993
 20
21.25862927149914
 30
0.0
 11
6.216634338231772
 21
21.19111229405264
 31
0.0
  0
LINE
  5
1CE
  8
0
 10
6.216634338231772
 20
21.19111229405264
 30
0.0
 11
6.369744255886594
 21
21.13348580159309
 31
0.0
  0
LINE
  5
1CF
  8
0
 10
6.369744255886594
 20
21.13348580159309
 30
0.0
 11
6.526295306388197
 21
21.08599655960819
 31
0.0
  0
LINE
  5
1D0
  8
0
 10
6.526295306388197
 20
21.08599655960819
 30
0.0
 11
6.685617114104179
 21
21.04884792432278
 31
0.0
  0
LINE
  5
1D1
  8
0
 10
6.685617114104179
 20
21.04884792432278
 30
0.0
 11
6.847027438594371
 21
21.02219897189633
 31
0.0
  0
LINE
  5
1D2
  8
0
 10
6.847027438594371
 20
21.02219897189633
 30
0.0
 11
7.009835096069144
 21
21.00616381723435
 31
0.0
  0
LINE
  5
1D3
  8
0
 10
7.009835096069144
 20
21.00616381723435
 30
0.0
 11
7.173342919144502
 21
21.00081112533086
 31
0.0
  0
LINE
  5
1D4
  8
0
 10
7.173342919144502
 20
21.00081112533086
 30
0.0
 11
7.336850742219861
 21
21.00616381723435
 31
0.0
  0
LINE
  5
1D5
  8
0
 10
7.336850742219861
 20
21.00616381723435
 30
0.0
 11
7.499658399694633
 21
21.02219897189633
 31
0.0
  0
LINE
  5
1D6
  8
0
 10
7.499658399694633
 20
21.02219897189633
 30
0.0
 11
7.661068724184825
 21
21.04884792432278
 31
0.0
  0
LINE
  5
1D7
  8
0
 10
7.661068724184825
 20
21.04884792432278
 30
0.0
 11
7.820390531900808
 21
21.08599655960819
 31
0.0
  0
LINE
  5
1D8
  8
0
 10
7.820390531900808
 20
21.08599655960819
 30
0.0
 11
7.976941582402411
 21
21.1334858015931
 31
0.0
  0
LINE
  5
1D9
  8
0
 10
7.976941582402411
 20
21.1334858015931
 30
0.0
 11
8.130051500057233
 21
21.19111229405264
 31
0.0
  0
LINE
  5
1DA
  8
0
 10
8.130051500057233
 20
21.19111229405264
 30
0.0
 11
8.279064644692012
 21
21.25862927149914
 31
0.0
  0
LINE
  5
1DB
  8
0
 10
8.279064644692012
 20
21.25862927149914
 30
0.0
 11
8.423342919144508
 21
21.33574761586977
 31
0.0
  0
LINE
  5
1DC
  8
0
 10
8.423342919144508
 20
21.33574761586977
 30
0.0
 11
8.562268501693515
 21
21.4221370945745
 31
0.0
  0
LINE
  5
1DD
  8
0
 10
8.562268501693515
 20
21.4221370945745
 30
0.0
 11
8.695246491666312
 21
21.51742777460277
 31
0.0
  0
LINE
  5
1DE
  8
0
 10
8.695246491666312
 20
21.51742777460277
 30
0.0
 11
8.821707456894682
 21
21.62121160663342
 31
0.0
  0
LINE
  5
1DF
  8
0
 10
8.821707456894682
 20
21.62121160663342
 30
0.0
 11
8.941109872110879
 21
21.7330441723645
 31
0.0
  0
LINE
  5
1E0
  8
0
 10
8.941109872110879
 20
21.7330441723645
 30
0.0
 11
9.052942437841955
 21
21.85244658758069
 31
0.0
  0
LINE
  5
1E1
  8
0
 10
9.052942437841955
 20
21.85244658758069
 30
0.0
 11
9.156726269872598
 21
21.97890755280907
 31
0.0
  0
LINE
  5
1E2
  8
0
 10
9.156726269872598
 20
21.97890755280907
 30
0.0
 11
9.252016949900874
 21
22.11188554278186
 31
0.0
  0
LINE
  5
1E3
  8
0
 10
9.252016949900874
 20
22.11188554278186
 30
0.0
 11
9.338406428605605
 21
22.25081112533087
 31
0.0
  0
LINE
  5
1E4
  8
0
 10
9.338406428605605
 20
22.25081112533087
 30
0.0
 11
9.415524772976228
 21
22.39508939978337
 31
0.0
  0
LINE
  5
1E5
  8
0
 10
9.415524772976228
 20
22.39508939978337
 30
0.0
 11
9.483041750422725
 21
22.54410254441815
 31
0.0
  0
LINE
  5
1E6
  8
0
 10
9.483041750422725
 20
22.54410254441815
 30
0.0
 11
9.540668242882273
 21
22.69721246207297
 31
0.0
  0
LINE
  5
1E7
  8
0
 10
9.540668242882273
 20
22.69721246207297
 30
0.0
 11
9.588157484867176
 21
22.85376351257458
 31
0.0
  0
LINE
  5
1E8
  8
0
 10
9.588157484867176
 20
22.85376351257458
 30
0.0
 11
9.625306120152581
 21
23.01308532029056
 31
0.0
  0
LINE
  5
1E9
  8
0
 10
9.625306120152581
 20
23.01308532029056
 30
0.0
 11
9.65195507257903
 21
23.17449564478075
 31
0.0
  0
LINE
  5
1EA
  8
0
 10
9.65195507257903
 20
23.17449564478075
 30
0.0
 11
9.667990227241011
 21
23.33730330225552
 31
0.0
  0
LINE
  5
1EB
  8
0
 10
9.667990227241011
 20
23.33730330225552
 30
0.0
 11
9.673342919144503
 21
23.50081112533086
 31
0.0
  0
LINE
  5
1EC
  8
0
 10
-25.02665708085548
 20
-8.299188874669142
 30
0.0
 11
-25.03200977275897
 21
-8.135681051593783
 31
0.0
  0
LINE
  5
1ED
  8
0
 10
-25.03200977275897
 20
-8.135681051593783
 30
0.0
 11
-25.04804492742096
 21
-7.972873394119012
 31
0.0
  0
LINE
  5
1EE
  8
0
 10
-25.04804492742096
 20
-7.972873394119012
 30
0.0
 11
-25.07469387984741
 21
-7.811463069628818
 31
0.0
  0
LINE
  5
1EF
  8
0
 10
-25.07469387984741
 20
-7.811463069628818
 30
0.0
 11
-25.11184251513281
 21
-7.652141261912834
 31
0.0
  0
LINE
  5
1F0
  8
0
 10
-25.11184251513281
 20
-7.652141261912834
 30
0.0
 11
-25.15933175711772
 21
-7.495590211411232
 31
0.0
  0
LINE
  5
1F1
  8
0
 10
-25.15933175711772
 20
-7.495590211411232
 30
0.0
 11
-25.21695824957727
 21
-7.342480293756411
 31
0.0
  0
LINE
  5
1F2
  8
0
 10
-25.21695824957727
 20
-7.342480293756411
 30
0.0
 11
-25.28447522702376
 21
-7.193467149121631
 31
0.0
  0
LINE
  5
1F3
  8
0
 10
-25.28447522702376
 20
-7.193467149121631
 30
0.0
 11
-25.36159357139439
 21
-7.049188874669135
 31
0.0
  0
LINE
  5
1F4
  8
0
 10
-25.36159357139439
 20
-7.049188874669135
 30
0.0
 11
-25.44798305009912
 21
-6.910263292120129
 31
0.0
  0
LINE
  5
1F5
  8
0
 10
-25.44798305009912
 20
-6.910263292120129
 30
0.0
 11
-25.5432737301274
 21
-6.777285302147331
 31
0.0
  0
LINE
  5
1F6
  8
0
 10
-25.5432737301274
 20
-6.777285302147331
 30
0.0
 11
-25.64705756215804
 21
-6.650824336918959
 31
0.0
  0
LINE
  5
1F7
  8
0
 10
-25.64705756215804
 20
-6.650824336918959
 30
0.0
 11
-25.75889012788912
 21
-6.531421921702762
 31
0.0
  0
LINE
  5
1F8
  8
0
 10
-25.75889012788912
 20
-6.531421921702762
 30
0.0
 11
-25.87829254310531
 21
-6.419589355971688
 31
0.0
  0
LINE
  5
1F9
  8
0
 10
-25.87829254310531
 20
-6.419589355971688
 30
0.0
 11
-26.00475350833369
 21
-6.315805523941043
 31
0.0
  0
LINE
  5
1FA
  8
0
 10
-26.00475350833369
 20
-6.315805523941043
 30
0.0
 11
-26.13773149830648
 21
-6.220514843912768
 31
0.0
  0
LINE
  5
1FB
  8
0
 10
-26.13773149830648
 20
-6.220514843912768
 30
0.0
 11
-26.27665708085549
 21
-6.134125365208032
 31
0.0
  0
LINE
  5
1FC
  8
0
 10
-26.27665708085549
 20
-6.134125365208032
 30
0.0
 11
-26.42093535530799
 21
-6.057007020837407
 31
0.0
  0
LINE
  5
1FD
  8
0
 10
-26.42093535530799
 20
-6.057007020837407
 30
0.0
 11
-26.56994849994276
 21
-5.98949004339091
 31
0.0
  0
LINE
  5
1FE
  8
0
 10
-26.56994849994276
 20
-5.98949004339091
 30
0.0
 11
-26.72305841759758
 21
-5.931863550931364
 31
0.0
  0
LINE
  5
1FF
  8
0
 10
-26.72305841759758
 20
-5.931863550931364
 30
0.0
 11
-26.87960946809919
 21
-5.884374308946458
 31
0.0
  0
LINE
  5
200
  8
0
 10
-26.87960946809919
 20
-5.884374308946458
 30
0.0
 11
-27.03893127581517
 21
-5.847225673661052
 31
0.0
  0
LINE
  5
201
  8
0
 10
-27.03893127581517
 20
-5.847225673661052
 30
0.0
 11
-27.20034160030536
 21
-5.820576721234602
 31
0.0
  0
LINE
  5
202
  8
0
 10
-27.20034160030536
 20
-5.820576721234602
 30
0.0
 11
-27.36314925778014
 21
-5.804541566572618
 31
0.0
  0
LINE
  5
203
  8
0
 10
-27.36314925778014
 20
-5.804541566572618
 30
0.0
 11
-27.5266570808555
 21
-5.799188874669126
 31
0.0
  0
LINE
  5
204
  8
0
 10
-27.5266570808555
 20
-5.799188874669126
 30
0.0
 11
-27.69016490393085
 21
-5.804541566572618
 31
0.0
  0
LINE
  5
205
  8
0
 10
-27.69016490393085
 20
-5.804541566572618
 30
0.0
 11
-27.85297256140562
 21
-5.820576721234602
 31
0.0
  0
LINE
  5
206
  8
0
 10
-27.85297256140562
 20
-5.820576721234602
 30
0.0
 11
-28.01438288589582
 21
-5.847225673661052
 31
0.0
  0
LINE
  5
207
  8
0
 10
-28.01438288589582
 20
-5.847225673661052
 30
0.0
 11
-28.1737046936118
 21
-5.884374308946455
 31
0.0
  0
LINE
  5
208
  8
0
 10
-28.1737046936118
 20
-5.884374308946455
 30
0.0
 11
-28.3302557441134
 21
-5.931863550931364
 31
0.0
  0
LINE
  5
209
  8
0
 10
-28.3302557441134
 20
-5.931863550931364
 30
0.0
 11
-28.48336566176823
 21
-5.98949004339091
 31
0.0
  0
LINE
  5
20A
  8
0
 10
-28.48336566176823
 20
-5.98949004339091
 30
0.0
 11
-28.632378806403
 21
-6.057007020837407
 31
0.0
  0
LINE
  5
20B
  8
0
 10
-28.632378806403
 20
-6.057007020837407
 30
0.0
 11
-28.7766570808555
 21
-6.134125365208032
 31
0.0
  0
LINE
  5
20C
  8
0
 10
-28.7766570808555
 20
-6.134125365208032
 30
0.0
 11
-28.91558266340451
 21
-6.220514843912764
 31
0.0
  0
LINE
  5
20D
  8
0
 10
-28.91558266340451
 20
-6.220514843912764
 30
0.0
 11
-29.0485606533773
 21
-6.31580552394104
 31
0.0
  0
LINE
  5
20E
  8
0
 10
-29.0485606533773
 20
-6.31580552394104
 30
0.0
 11
-29.17502161860567
 21
-6.419589355971685
 31
0.0
  0
LINE
  5
20F
  8
0
 10
-29.17502161860567
 20
-6.419589355971685
 30
0.0
 11
-29.29442403382188
 21
-6.531421921702759
 31
0.0
  0
LINE
  5
210
  8
0
 10
-29.29442403382188
 20
-6.531421921702759
 30
0.0
 11
-29.40625659955295
 21
-6.650824336918959
 31
0.0
  0
LINE
  5
211
  8
0
 10
-29.40625659955295
 20
-6.650824336918959
 30
0.0
 11
-29.51004043158359
 21
-6.777285302147328
 31
0.0
  0
LINE
  5
212
  8
0
 10
-29.51004043158359
 20
-6.777285302147328
 30
0.0
 11
-29.60533111161187
 21
-6.910263292120126
 31
0.0
  0
LINE
  5
213
  8
0
 10
-29.60533111161187
 20
-6.910263292120126
 30
0.0
 11
-29.6917205903166
 21
-7.049188874669129
 31
0.0
  0
LINE
  5
214
  8
0
 10
-29.6917205903166
 20
-7.049188874669129
 30
0.0
 11
-29.76883893468723
 21
-7.193467149121628
 31
0.0
  0
LINE
  5
215
  8
0
 10
-29.76883893468723
 20
-7.193467149121628
 30
0.0
 11
-29.83635591213373
 21
-7.342480293756409
 31
0.0
  0
LINE
  5
216
  8
0
 10
-29.83635591213373
 20
-7.342480293756409
 30
0.0
 11
-29.89398240459327
 21
-7.495590211411227
 31
0.0
  0
LINE
  5
217
  8
0
 10
-29.89398240459327
 20
-7.495590211411227
 30
0.0
 11
-29.94147164657818
 21
-7.652141261912831
 31
0.0
  0
LINE
  5
218
  8
0
 10
-29.94147164657818
 20
-7.652141261912831
 30
0.0
 11
-29.97862028186358
 21
-7.811463069628813
 31
0.0
  0
LINE
  5
219
  8
0
 10
-29.97862028186358
 20
-7.811463069628813
 30
0.0
 11
-30.00526923429003
 21
-7.972873394119006
 31
0.0
  0
LINE
  5
21A
  8
0
 10
-30.00526923429003
 20
-7.972873394119006
 30
0.0
 11
-30.02130438895202
 21
-8.135681051593778
 31
0.0
  0
LINE
  5
21B
  8
0
 10
-30.02130438895202
 20
-8.135681051593778
 30
0.0
 11
-30.02665708085551
 21
-8.299188874669136
 31
0.0
  0
LINE
  5
21C
  8
0
 10
-30.02665708085551
 20
-8.299188874669136
 30
0.0
 11
-30.02130438895202
 21
-8.462696697744493
 31
0.0
  0
LINE
  5
21D
  8
0
 10
-30.02130438895202
 20
-8.462696697744493
 30
0.0
 11
-30.00526923429004
 21
-8.625504355219265
 31
0.0
  0
LINE
  5
21E
  8
0
 10
-30.00526923429004
 20
-8.625504355219265
 30
0.0
 11
-29.97862028186358
 21
-8.786914679709458
 31
0.0
  0
LINE
  5
21F
  8
0
 10
-29.97862028186358
 20
-8.786914679709458
 30
0.0
 11
-29.94147164657818
 21
-8.94623648742544
 31
0.0
  0
LINE
  5
220
  8
0
 10
-29.94147164657818
 20
-8.94623648742544
 30
0.0
 11
-29.89398240459327
 21
-9.102787537927044
 31
0.0
  0
LINE
  5
221
  8
0
 10
-29.89398240459327
 20
-9.102787537927044
 30
0.0
 11
-29.83635591213373
 21
-9.255897455581866
 31
0.0
  0
LINE
  5
222
  8
0
 10
-29.83635591213373
 20
-9.255897455581866
 30
0.0
 11
-29.76883893468723
 21
-9.404910600216644
 31
0.0
  0
LINE
  5
223
  8
0
 10
-29.76883893468723
 20
-9.404910600216644
 30
0.0
 11
-29.69172059031661
 21
-9.549188874669142
 31
0.0
  0
LINE
  5
224
  8
0
 10
-29.69172059031661
 20
-9.549188874669142
 30
0.0
 11
-29.60533111161187
 21
-9.688114457218148
 31
0.0
  0
LINE
  5
225
  8
0
 10
-29.60533111161187
 20
-9.688114457218148
 30
0.0
 11
-29.5100404315836
 21
-9.821092447190946
 31
0.0
  0
LINE
  5
226
  8
0
 10
-29.5100404315836
 20
-9.821092447190946
 30
0.0
 11
-29.40625659955296
 21
-9.947553412419316
 31
0.0
  0
LINE
  5
227
  8
0
 10
-29.40625659955296
 20
-9.947553412419316
 30
0.0
 11
-29.29442403382188
 21
-10.06695582763551
 31
0.0
  0
LINE
  5
228
  8
0
 10
-29.29442403382188
 20
-10.06695582763551
 30
0.0
 11
-29.17502161860569
 21
-10.17878839336659
 31
0.0
  0
LINE
  5
229
  8
0
 10
-29.17502161860569
 20
-10.17878839336659
 30
0.0
 11
-29.04856065337732
 21
-10.28257222539724
 31
0.0
  0
LINE
  5
22A
  8
0
 10
-29.04856065337732
 20
-10.28257222539724
 30
0.0
 11
-28.91558266340452
 21
-10.37786290542551
 31
0.0
  0
LINE
  5
22B
  8
0
 10
-28.91558266340452
 20
-10.37786290542551
 30
0.0
 11
-28.77665708085551
 21
-10.46425238413025
 31
0.0
  0
LINE
  5
22C
  8
0
 10
-28.77665708085551
 20
-10.46425238413025
 30
0.0
 11
-28.63237880640301
 21
-10.54137072850087
 31
0.0
  0
LINE
  5
22D
  8
0
 10
-28.63237880640301
 20
-10.54137072850087
 30
0.0
 11
-28.48336566176823
 21
-10.60888770594737
 31
0.0
  0
LINE
  5
22E
  8
0
 10
-28.48336566176823
 20
-10.60888770594737
 30
0.0
 11
-28.33025574411341
 21
-10.66651419840692
 31
0.0
  0
LINE
  5
22F
  8
0
 10
-28.33025574411341
 20
-10.66651419840692
 30
0.0
 11
-28.1737046936118
 21
-10.71400344039182
 31
0.0
  0
LINE
  5
230
  8
0
 10
-28.1737046936118
 20
-10.71400344039182
 30
0.0
 11
-28.01438288589582
 21
-10.75115207567723
 31
0.0
  0
LINE
  5
231
  8
0
 10
-28.01438288589582
 20
-10.75115207567723
 30
0.0
 11
-27.85297256140563
 21
-10.77780102810368
 31
0.0
  0
LINE
  5
232
  8
0
 10
-27.85297256140563
 20
-10.77780102810368
 30
0.0
 11
-27.69016490393086
 21
-10.79383618276566
 31
0.0
  0
LINE
  5
233
  8
0
 10
-27.69016490393086
 20
-10.79383618276566
 30
0.0
 11
-27.5266570808555
 21
-10.79918887466916
 31
0.0
  0
LINE
  5
234
  8
0
 10
-27.5266570808555
 20
-10.79918887466916
 30
0.0
 11
-27.36314925778014
 21
-10.79383618276566
 31
0.0
  0
LINE
  5
235
  8
0
 10
-27.36314925778014
 20
-10.79383618276566
 30
0.0
 11
-27.20034160030536
 21
-10.77780102810368
 31
0.0
  0
LINE
  5
236
  8
0
 10
-27.20034160030536
 20
-10.77780102810368
 30
0.0
 11
-27.03893127581517
 21
-10.75115207567723
 31
0.0
  0
LINE
  5
237
  8
0
 10
-27.03893127581517
 20
-10.75115207567723
 30
0.0
 11
-26.87960946809918
 21
-10.71400344039182
 31
0.0
  0
LINE
  5
238
  8
0
 10
-26.87960946809918
 20
-10.71400344039182
 30
0.0
 11
-26.72305841759758
 21
-10.66651419840692
 31
0.0
  0
LINE
  5
239
  8
0
 10
-26.72305841759758
 20
-10.66651419840692
 30
0.0
 11
-26.56994849994276
 21
-10.60888770594737
 31
0.0
  0
LINE
  5
23A
  8
0
 10
-26.56994849994276
 20
-10.60888770594737
 30
0.0
 11
-26.42093535530798
 21
-10.54137072850087
 31
0.0
  0
LINE
  5
23B
  8
0
 10
-26.42093535530798
 20
-10.54137072850087
 30
0.0
 11
-26.27665708085548
 21
-10.46425238413024
 31
0.0
  0
LINE
  5
23C
  8
0
 10
-26.27665708085548
 20
-10.46425238413024
 30
0.0
 11
-26.13773149830648
 21
-10.37786290542551
 31
0.0
  0
LINE
  5
23D
  8
0
 10
-26.13773149830648
 20
-10.37786290542551
 30
0.0
 11
-26.00475350833368
 21
-10.28257222539723
 31
0.0
  0
LINE
  5
23E
  8
0
 10
-26.00475350833368
 20
-10.28257222539723
 30
0.0
 11
-25.8782925431053
 21
-10.17878839336659
 31
0.0
  0
LINE
  5
23F
  8
0
 10
-25.8782925431053
 20
-10.17878839336659
 30
0.0
 11
-25.75889012788911
 21
-10.06695582763551
 31
0.0
  0
LINE
  5
240
  8
0
 10
-25.75889012788911
 20
-10.06695582763551
 30
0.0
 11
-25.64705756215804
 21
-9.947553412419312
 31
0.0
  0
LINE
  5
241
  8
0
 10
-25.64705756215804
 20
-9.947553412419312
 30
0.0
 11
-25.54327373012739
 21
-9.82109244719094
 31
0.0
  0
LINE
  5
242
  8
0
 10
-25.54327373012739
 20
-9.82109244719094
 30
0.0
 11
-25.44798305009911
 21
-9.688114457218143
 31
0.0
  0
LINE
  5
243
  8
0
 10
-25.44798305009911
 20
-9.688114457218143
 30
0.0
 11
-25.36159357139438
 21
-9.549188874669133
 31
0.0
  0
LINE
  5
244
  8
0
 10
-25.36159357139438
 20
-9.549188874669133
 30
0.0
 11
-25.28447522702375
 21
-9.404910600216635
 31
0.0
  0
LINE
  5
245
  8
0
 10
-25.28447522702375
 20
-9.404910600216635
 30
0.0
 11
-25.21695824957726
 21
-9.255897455581854
 31
0.0
  0
LINE
  5
246
  8
0
 10
-25.21695824957726
 20
-9.255897455581854
 30
0.0
 11
-25.15933175711771
 21
-9.10278753792703
 31
0.0
  0
LINE
  5
247
  8
0
 10
-25.15933175711771
 20
-9.10278753792703
 30
0.0
 11
-25.11184251513281
 21
-8.946236487425429
 31
0.0
  0
LINE
  5
248
  8
0
 10
-25.11184251513281
 20
-8.946236487425429
 30
0.0
 11
-25.0746938798474
 21
-8.786914679709446
 31
0.0
  0
LINE
  5
249
  8
0
 10
-25.0746938798474
 20
-8.786914679709446
 30
0.0
 11
-25.04804492742095
 21
-8.62550435521925
 31
0.0
  0
LINE
  5
24A
  8
0
 10
-25.04804492742095
 20
-8.62550435521925
 30
0.0
 11
-25.03200977275897
 21
-8.462696697744477
 31
0.0
  0
LINE
  5
24B
  8
0
 10
-25.03200977275897
 20
-8.462696697744477
 30
0.0
 11
-25.02665708085548
 21
-8.299188874669142
 31
0.0
  0
LINE
  5
24C
  8
0
 10
-7.676657080855503
 20
-8.299188874669142
 30
0.0
 11
-7.682009772758994
 21
-8.135681051593783
 31
0.0
  0
LINE
  5
24D
  8
0
 10
-7.682009772758994
 20
-8.135681051593783
 30
0.0
 11
-7.698044927420977
 21
-7.972873394119012
 31
0.0
  0
LINE
  5
24E
  8
0
 10
-7.698044927420977
 20
-7.972873394119012
 30
0.0
 11
-7.724693879847426
 21
-7.811463069628821
 31
0.0
  0
LINE
  5
24F
  8
0
 10
-7.724693879847426
 20
-7.811463069628821
 30
0.0
 11
-7.761842515132831
 21
-7.65214126191284
 31
0.0
  0
LINE
  5
250
  8
0
 10
-7.761842515132831
 20
-7.65214126191284
 30
0.0
 11
-7.809331757117739
 21
-7.495590211411238
 31
0.0
  0
LINE
  5
251
  8
0
 10
-7.809331757117739
 20
-7.495590211411238
 30
0.0
 11
-7.866958249577286
 21
-7.342480293756419
 31
0.0
  0
LINE
  5
252
  8
0
 10
-7.866958249577286
 20
-7.342480293756419
 30
0.0
 11
-7.934475227023781
 21
-7.19346714912164
 31
0.0
  0
LINE
  5
253
  8
0
 10
-7.934475227023781
 20
-7.19346714912164
 30
0.0
 11
-8.011593571394405
 21
-7.049188874669143
 31
0.0
  0
LINE
  5
254
  8
0
 10
-8.011593571394405
 20
-7.049188874669143
 30
0.0
 11
-8.097983050099138
 21
-6.910263292120137
 31
0.0
  0
LINE
  5
255
  8
0
 10
-8.097983050099138
 20
-6.910263292120137
 30
0.0
 11
-8.193273730127414
 21
-6.777285302147343
 31
0.0
  0
LINE
  5
256
  8
0
 10
-8.193273730127414
 20
-6.777285302147343
 30
0.0
 11
-8.297057562158058
 21
-6.650824336918972
 31
0.0
  0
LINE
  5
257
  8
0
 10
-8.297057562158058
 20
-6.650824336918972
 30
0.0
 11
-8.408890127889132
 21
-6.531421921702776
 31
0.0
  0
LINE
  5
258
  8
0
 10
-8.408890127889132
 20
-6.531421921702776
 30
0.0
 11
-8.52829254310533
 21
-6.419589355971702
 31
0.0
  0
LINE
  5
259
  8
0
 10
-8.52829254310533
 20
-6.419589355971702
 30
0.0
 11
-8.6547535083337
 21
-6.315805523941057
 31
0.0
  0
LINE
  5
25A
  8
0
 10
-8.6547535083337
 20
-6.315805523941057
 30
0.0
 11
-8.787731498306496
 21
-6.220514843912781
 31
0.0
  0
LINE
  5
25B
  8
0
 10
-8.787731498306496
 20
-6.220514843912781
 30
0.0
 11
-8.9266570808555
 21
-6.134125365208049
 31
0.0
  0
LINE
  5
25C
  8
0
 10
-8.9266570808555
 20
-6.134125365208049
 30
0.0
 11
-9.070935355307999
 21
-6.057007020837424
 31
0.0
  0
LINE
  5
25D
  8
0
 10
-9.070935355307999
 20
-6.057007020837424
 30
0.0
 11
-9.219948499942776
 21
-5.989490043390927
 31
0.0
  0
LINE
  5
25E
  8
0
 10
-9.219948499942776
 20
-5.989490043390927
 30
0.0
 11
-9.373058417597596
 21
-5.931863550931381
 31
0.0
  0
LINE
  5
25F
  8
0
 10
-9.373058417597596
 20
-5.931863550931381
 30
0.0
 11
-9.529609468099197
 21
-5.884374308946475
 31
0.0
  0
LINE
  5
260
  8
0
 10
-9.529609468099197
 20
-5.884374308946475
 30
0.0
 11
-9.688931275815179
 21
-5.847225673661069
 31
0.0
  0
LINE
  5
261
  8
0
 10
-9.688931275815179
 20
-5.847225673661069
 30
0.0
 11
-9.850341600305368
 21
-5.820576721234619
 31
0.0
  0
LINE
  5
262
  8
0
 10
-9.850341600305368
 20
-5.820576721234619
 30
0.0
 11
-10.01314925778014
 21
-5.804541566572638
 31
0.0
  0
LINE
  5
263
  8
0
 10
-10.01314925778014
 20
-5.804541566572638
 30
0.0
 11
-10.1766570808555
 21
-5.799188874669146
 31
0.0
  0
LINE
  5
264
  8
0
 10
-10.1766570808555
 20
-5.799188874669146
 30
0.0
 11
-10.34016490393086
 21
-5.804541566572638
 31
0.0
  0
LINE
  5
265
  8
0
 10
-10.34016490393086
 20
-5.804541566572638
 30
0.0
 11
-10.50297256140563
 21
-5.820576721234619
 31
0.0
  0
LINE
  5
266
  8
0
 10
-10.50297256140563
 20
-5.820576721234619
 30
0.0
 11
-10.66438288589582
 21
-5.847225673661069
 31
0.0
  0
LINE
  5
267
  8
0
 10
-10.66438288589582
 20
-5.847225673661069
 30
0.0
 11
-10.8237046936118
 21
-5.884374308946475
 31
0.0
  0
LINE
  5
268
  8
0
 10
-10.8237046936118
 20
-5.884374308946475
 30
0.0
 11
-10.9802557441134
 21
-5.931863550931381
 31
0.0
  0
LINE
  5
269
  8
0
 10
-10.9802557441134
 20
-5.931863550931381
 30
0.0
 11
-11.13336566176822
 21
-5.989490043390927
 31
0.0
  0
LINE
  5
26A
  8
0
 10
-11.13336566176822
 20
-5.989490043390927
 30
0.0
 11
-11.282378806403
 21
-6.057007020837424
 31
0.0
  0
LINE
  5
26B
  8
0
 10
-11.282378806403
 20
-6.057007020837424
 30
0.0
 11
-11.4266570808555
 21
-6.134125365208046
 31
0.0
  0
LINE
  5
26C
  8
0
 10
-11.4266570808555
 20
-6.134125365208046
 30
0.0
 11
-11.5655826634045
 21
-6.220514843912781
 31
0.0
  0
LINE
  5
26D
  8
0
 10
-11.5655826634045
 20
-6.220514843912781
 30
0.0
 11
-11.6985606533773
 21
-6.315805523941054
 31
0.0
  0
LINE
  5
26E
  8
0
 10
-11.6985606533773
 20
-6.315805523941054
 30
0.0
 11
-11.82502161860567
 21
-6.419589355971699
 31
0.0
  0
LINE
  5
26F
  8
0
 10
-11.82502161860567
 20
-6.419589355971699
 30
0.0
 11
-11.94442403382186
 21
-6.531421921702774
 31
0.0
  0
LINE
  5
270
  8
0
 10
-11.94442403382186
 20
-6.531421921702774
 30
0.0
 11
-12.05625659955294
 21
-6.650824336918969
 31
0.0
  0
LINE
  5
271
  8
0
 10
-12.05625659955294
 20
-6.650824336918969
 30
0.0
 11
-12.16004043158358
 21
-6.77728530214734
 31
0.0
  0
LINE
  5
272
  8
0
 10
-12.16004043158358
 20
-6.77728530214734
 30
0.0
 11
-12.25533111161186
 21
-6.910263292120134
 31
0.0
  0
LINE
  5
273
  8
0
 10
-12.25533111161186
 20
-6.910263292120134
 30
0.0
 11
-12.34172059031659
 21
-7.049188874669141
 31
0.0
  0
LINE
  5
274
  8
0
 10
-12.34172059031659
 20
-7.049188874669141
 30
0.0
 11
-12.41883893468721
 21
-7.193467149121637
 31
0.0
  0
LINE
  5
275
  8
0
 10
-12.41883893468721
 20
-7.193467149121637
 30
0.0
 11
-12.48635591213371
 21
-7.342480293756414
 31
0.0
  0
LINE
  5
276
  8
0
 10
-12.48635591213371
 20
-7.342480293756414
 30
0.0
 11
-12.54398240459326
 21
-7.495590211411235
 31
0.0
  0
LINE
  5
277
  8
0
 10
-12.54398240459326
 20
-7.495590211411235
 30
0.0
 11
-12.59147164657816
 21
-7.652141261912834
 31
0.0
  0
LINE
  5
278
  8
0
 10
-12.59147164657816
 20
-7.652141261912834
 30
0.0
 11
-12.62862028186357
 21
-7.811463069628815
 31
0.0
  0
LINE
  5
279
  8
0
 10
-12.62862028186357
 20
-7.811463069628815
 30
0.0
 11
-12.65526923429002
 21
-7.972873394119006
 31
0.0
  0
LINE
  5
27A
  8
0
 10
-12.65526923429002
 20
-7.972873394119006
 30
0.0
 11
-12.671304388952
 21
-8.135681051593778
 31
0.0
  0
LINE
  5
27B
  8
0
 10
-12.671304388952
 20
-8.135681051593778
 30
0.0
 11
-12.67665708085549
 21
-8.299188874669136
 31
0.0
  0
LINE
  5
27C
  8
0
 10
-12.67665708085549
 20
-8.299188874669136
 30
0.0
 11
-12.671304388952
 21
-8.462696697744493
 31
0.0
  0
LINE
  5
27D
  8
0
 10
-12.671304388952
 20
-8.462696697744493
 30
0.0
 11
-12.65526923429002
 21
-8.625504355219263
 31
0.0
  0
LINE
  5
27E
  8
0
 10
-12.65526923429002
 20
-8.625504355219263
 30
0.0
 11
-12.62862028186357
 21
-8.786914679709456
 31
0.0
  0
LINE
  5
27F
  8
0
 10
-12.62862028186357
 20
-8.786914679709456
 30
0.0
 11
-12.59147164657817
 21
-8.946236487425438
 31
0.0
  0
LINE
  5
280
  8
0
 10
-12.59147164657817
 20
-8.946236487425438
 30
0.0
 11
-12.54398240459326
 21
-9.102787537927036
 31
0.0
  0
LINE
  5
281
  8
0
 10
-12.54398240459326
 20
-9.102787537927036
 30
0.0
 11
-12.48635591213371
 21
-9.255897455581858
 31
0.0
  0
LINE
  5
282
  8
0
 10
-12.48635591213371
 20
-9.255897455581858
 30
0.0
 11
-12.41883893468722
 21
-9.404910600216635
 31
0.0
  0
LINE
  5
283
  8
0
 10
-12.41883893468722
 20
-9.404910600216635
 30
0.0
 11
-12.34172059031659
 21
-9.549188874669133
 31
0.0
  0
LINE
  5
284
  8
0
 10
-12.34172059031659
 20
-9.549188874669133
 30
0.0
 11
-12.25533111161186
 21
-9.688114457218138
 31
0.0
  0
LINE
  5
285
  8
0
 10
-12.25533111161186
 20
-9.688114457218138
 30
0.0
 11
-12.16004043158359
 21
-9.821092447190933
 31
0.0
  0
LINE
  5
286
  8
0
 10
-12.16004043158359
 20
-9.821092447190933
 30
0.0
 11
-12.05625659955294
 21
-9.947553412419305
 31
0.0
  0
LINE
  5
287
  8
0
 10
-12.05625659955294
 20
-9.947553412419305
 30
0.0
 11
-11.94442403382187
 21
-10.0669558276355
 31
0.0
  0
LINE
  5
288
  8
0
 10
-11.94442403382187
 20
-10.0669558276355
 30
0.0
 11
-11.82502161860567
 21
-10.17878839336658
 31
0.0
  0
LINE
  5
289
  8
0
 10
-11.82502161860567
 20
-10.17878839336658
 30
0.0
 11
-11.6985606533773
 21
-10.28257222539722
 31
0.0
  0
LINE
  5
28A
  8
0
 10
-11.6985606533773
 20
-10.28257222539722
 30
0.0
 11
-11.56558266340451
 21
-10.3778629054255
 31
0.0
  0
LINE
  5
28B
  8
0
 10
-11.56558266340451
 20
-10.3778629054255
 30
0.0
 11
-11.4266570808555
 21
-10.46425238413023
 31
0.0
  0
LINE
  5
28C
  8
0
 10
-11.4266570808555
 20
-10.46425238413023
 30
0.0
 11
-11.282378806403
 21
-10.54137072850085
 31
0.0
  0
LINE
  5
28D
  8
0
 10
-11.282378806403
 20
-10.54137072850085
 30
0.0
 11
-11.13336566176822
 21
-10.60888770594735
 31
0.0
  0
LINE
  5
28E
  8
0
 10
-11.13336566176822
 20
-10.60888770594735
 30
0.0
 11
-10.9802557441134
 21
-10.6665141984069
 31
0.0
  0
LINE
  5
28F
  8
0
 10
-10.9802557441134
 20
-10.6665141984069
 30
0.0
 11
-10.8237046936118
 21
-10.71400344039181
 31
0.0
  0
LINE
  5
290
  8
0
 10
-10.8237046936118
 20
-10.71400344039181
 30
0.0
 11
-10.66438288589582
 21
-10.75115207567721
 31
0.0
  0
LINE
  5
291
  8
0
 10
-10.66438288589582
 20
-10.75115207567721
 30
0.0
 11
-10.50297256140563
 21
-10.77780102810366
 31
0.0
  0
LINE
  5
292
  8
0
 10
-10.50297256140563
 20
-10.77780102810366
 30
0.0
 11
-10.34016490393086
 21
-10.79383618276565
 31
0.0
  0
LINE
  5
293
  8
0
 10
-10.34016490393086
 20
-10.79383618276565
 30
0.0
 11
-10.1766570808555
 21
-10.79918887466914
 31
0.0
  0
LINE
  5
294
  8
0
 10
-10.1766570808555
 20
-10.79918887466914
 30
0.0
 11
-10.01314925778014
 21
-10.79383618276565
 31
0.0
  0
LINE
  5
295
  8
0
 10
-10.01314925778014
 20
-10.79383618276565
 30
0.0
 11
-9.850341600305367
 21
-10.77780102810366
 31
0.0
  0
LINE
  5
296
  8
0
 10
-9.850341600305367
 20
-10.77780102810366
 30
0.0
 11
-9.688931275815174
 21
-10.75115207567721
 31
0.0
  0
LINE
  5
297
  8
0
 10
-9.688931275815174
 20
-10.75115207567721
 30
0.0
 11
-9.529609468099194
 21
-10.71400344039181
 31
0.0
  0
LINE
  5
298
  8
0
 10
-9.529609468099194
 20
-10.71400344039181
 30
0.0
 11
-9.37305841759759
 21
-10.6665141984069
 31
0.0
  0
LINE
  5
299
  8
0
 10
-9.37305841759759
 20
-10.6665141984069
 30
0.0
 11
-9.219948499942769
 21
-10.60888770594735
 31
0.0
  0
LINE
  5
29A
  8
0
 10
-9.219948499942769
 20
-10.60888770594735
 30
0.0
 11
-9.07093535530799
 21
-10.54137072850085
 31
0.0
  0
LINE
  5
29B
  8
0
 10
-9.07093535530799
 20
-10.54137072850085
 30
0.0
 11
-8.926657080855492
 21
-10.46425238413023
 31
0.0
  0
LINE
  5
29C
  8
0
 10
-8.926657080855492
 20
-10.46425238413023
 30
0.0
 11
-8.787731498306487
 21
-10.37786290542549
 31
0.0
  0
LINE
  5
29D
  8
0
 10
-8.787731498306487
 20
-10.37786290542549
 30
0.0
 11
-8.654753508333691
 21
-10.28257222539722
 31
0.0
  0
LINE
  5
29E
  8
0
 10
-8.654753508333691
 20
-10.28257222539722
 30
0.0
 11
-8.52829254310532
 21
-10.17878839336658
 31
0.0
  0
LINE
  5
29F
  8
0
 10
-8.52829254310532
 20
-10.17878839336658
 30
0.0
 11
-8.408890127889125
 21
-10.0669558276355
 31
0.0
  0
LINE
  5
2A0
  8
0
 10
-8.408890127889125
 20
-10.0669558276355
 30
0.0
 11
-8.297057562158049
 21
-9.947553412419301
 31
0.0
  0
LINE
  5
2A1
  8
0
 10
-8.297057562158049
 20
-9.947553412419301
 30
0.0
 11
-8.193273730127405
 21
-9.821092447190928
 31
0.0
  0
LINE
  5
2A2
  8
0
 10
-8.193273730127405
 20
-9.821092447190928
 30
0.0
 11
-8.09798305009913
 21
-9.688114457218132
 31
0.0
  0
LINE
  5
2A3
  8
0
 10
-8.09798305009913
 20
-9.688114457218132
 30
0.0
 11
-8.011593571394398
 21
-9.549188874669126
 31
0.0
  0
LINE
  5
2A4
  8
0
 10
-8.011593571394398
 20
-9.549188874669126
 30
0.0
 11
-7.934475227023774
 21
-9.404910600216626
 31
0.0
  0
LINE
  5
2A5
  8
0
 10
-7.934475227023774
 20
-9.404910600216626
 30
0.0
 11
-7.866958249577279
 21
-9.255897455581845
 31
0.0
  0
LINE
  5
2A6
  8
0
 10
-7.866958249577279
 20
-9.255897455581845
 30
0.0
 11
-7.809331757117731
 21
-9.102787537927025
 31
0.0
  0
LINE
  5
2A7
  8
0
 10
-7.809331757117731
 20
-9.102787537927025
 30
0.0
 11
-7.761842515132827
 21
-8.946236487425423
 31
0.0
  0
LINE
  5
2A8
  8
0
 10
-7.761842515132827
 20
-8.946236487425423
 30
0.0
 11
-7.724693879847423
 21
-8.786914679709438
 31
0.0
  0
LINE
  5
2A9
  8
0
 10
-7.724693879847423
 20
-8.786914679709438
 30
0.0
 11
-7.698044927420973
 21
-8.625504355219249
 31
0.0
  0
LINE
  5
2AA
  8
0
 10
-7.698044927420973
 20
-8.625504355219249
 30
0.0
 11
-7.682009772758992
 21
-8.462696697744477
 31
0.0
  0
LINE
  5
2AB
  8
0
 10
-7.682009772758992
 20
-8.462696697744477
 30
0.0
 11
-7.676657080855503
 21
-8.299188874669142
 31
0.0
  0
LINE
  5
2AC
  8
0
 10
9.6733429191445
 20
-8.299188874669142
 30
0.0
 11
9.667990227241008
 21
-8.135681051593783
 31
0.0
  0
LINE
  5
2AD
  8
0
 10
9.667990227241008
 20
-8.135681051593783
 30
0.0
 11
9.651955072579026
 21
-7.972873394119012
 31
0.0
  0
LINE
  5
2AE
  8
0
 10
9.651955072579026
 20
-7.972873394119012
 30
0.0
 11
9.625306120152576
 21
-7.811463069628821
 31
0.0
  0
LINE
  5
2AF
  8
0
 10
9.625306120152576
 20
-7.811463069628821
 30
0.0
 11
9.588157484867171
 21
-7.65214126191284
 31
0.0
  0
LINE
  5
2B0
  8
0
 10
9.588157484867171
 20
-7.65214126191284
 30
0.0
 11
9.540668242882266
 21
-7.495590211411238
 31
0.0
  0
LINE
  5
2B1
  8
0
 10
9.540668242882266
 20
-7.495590211411238
 30
0.0
 11
9.483041750422718
 21
-7.342480293756417
 31
0.0
  0
LINE
  5
2B2
  8
0
 10
9.483041750422718
 20
-7.342480293756417
 30
0.0
 11
9.415524772976223
 21
-7.19346714912164
 31
0.0
  0
LINE
  5
2B3
  8
0
 10
9.415524772976223
 20
-7.19346714912164
 30
0.0
 11
9.338406428605596
 21
-7.049188874669141
 31
0.0
  0
LINE
  5
2B4
  8
0
 10
9.338406428605596
 20
-7.049188874669141
 30
0.0
 11
9.252016949900863
 21
-6.910263292120137
 31
0.0
  0
LINE
  5
2B5
  8
0
 10
9.252016949900863
 20
-6.910263292120137
 30
0.0
 11
9.156726269872589
 21
-6.77728530214734
 31
0.0
  0
LINE
  5
2B6
  8
0
 10
9.156726269872589
 20
-6.77728530214734
 30
0.0
 11
9.052942437841944
 21
-6.650824336918969
 31
0.0
  0
LINE
  5
2B7
  8
0
 10
9.052942437841944
 20
-6.650824336918969
 30
0.0
 11
8.94110987211087
 21
-6.531421921702774
 31
0.0
  0
LINE
  5
2B8
  8
0
 10
8.94110987211087
 20
-6.531421921702774
 30
0.0
 11
8.821707456894673
 21
-6.419589355971699
 31
0.0
  0
LINE
  5
2B9
  8
0
 10
8.821707456894673
 20
-6.419589355971699
 30
0.0
 11
8.695246491666301
 21
-6.315805523941054
 31
0.0
  0
LINE
  5
2BA
  8
0
 10
8.695246491666301
 20
-6.315805523941054
 30
0.0
 11
8.562268501693506
 21
-6.220514843912778
 31
0.0
  0
LINE
  5
2BB
  8
0
 10
8.562268501693506
 20
-6.220514843912778
 30
0.0
 11
8.423342919144499
 21
-6.134125365208046
 31
0.0
  0
LINE
  5
2BC
  8
0
 10
8.423342919144499
 20
-6.134125365208046
 30
0.0
 11
8.279064644692005
 21
-6.057007020837421
 31
0.0
  0
LINE
  5
2BD
  8
0
 10
8.279064644692005
 20
-6.057007020837421
 30
0.0
 11
8.130051500057226
 21
-5.989490043390925
 31
0.0
  0
LINE
  5
2BE
  8
0
 10
8.130051500057226
 20
-5.989490043390925
 30
0.0
 11
7.976941582402405
 21
-5.931863550931379
 31
0.0
  0
LINE
  5
2BF
  8
0
 10
7.976941582402405
 20
-5.931863550931379
 30
0.0
 11
7.820390531900803
 21
-5.884374308946472
 31
0.0
  0
LINE
  5
2C0
  8
0
 10
7.820390531900803
 20
-5.884374308946472
 30
0.0
 11
7.661068724184823
 21
-5.847225673661066
 31
0.0
  0
LINE
  5
2C1
  8
0
 10
7.661068724184823
 20
-5.847225673661066
 30
0.0
 11
7.49965839969463
 21
-5.820576721234616
 31
0.0
  0
LINE
  5
2C2
  8
0
 10
7.49965839969463
 20
-5.820576721234616
 30
0.0
 11
7.33685074221986
 21
-5.804541566572632
 31
0.0
  0
LINE
  5
2C3
  8
0
 10
7.33685074221986
 20
-5.804541566572632
 30
0.0
 11
7.173342919144502
 21
-5.79918887466914
 31
0.0
  0
LINE
  5
2C4
  8
0
 10
7.173342919144502
 20
-5.79918887466914
 30
0.0
 11
7.009835096069144
 21
-5.804541566572632
 31
0.0
  0
LINE
  5
2C5
  8
0
 10
7.009835096069144
 20
-5.804541566572632
 30
0.0
 11
6.847027438594374
 21
-5.820576721234616
 31
0.0
  0
LINE
  5
2C6
  8
0
 10
6.847027438594374
 20
-5.820576721234616
 30
0.0
 11
6.685617114104182
 21
-5.847225673661066
 31
0.0
  0
LINE
  5
2C7
  8
0
 10
6.685617114104182
 20
-5.847225673661066
 30
0.0
 11
6.526295306388201
 21
-5.88437430894647
 31
0.0
  0
LINE
  5
2C8
  8
0
 10
6.526295306388201
 20
-5.88437430894647
 30
0.0
 11
6.369744255886599
 21
-5.931863550931376
 31
0.0
  0
LINE
  5
2C9
  8
0
 10
6.369744255886599
 20
-5.931863550931376
 30
0.0
 11
6.216634338231779
 21
-5.989490043390925
 31
0.0
  0
LINE
  5
2CA
  8
0
 10
6.216634338231779
 20
-5.989490043390925
 30
0.0
 11
6.067621193597001
 21
-6.057007020837418
 31
0.0
  0
LINE
  5
2CB
  8
0
 10
6.067621193597001
 20
-6.057007020837418
 30
0.0
 11
5.923342919144503
 21
-6.134125365208043
 31
0.0
  0
LINE
  5
2CC
  8
0
 10
5.923342919144503
 20
-6.134125365208043
 30
0.0
 11
5.784417336595498
 21
-6.220514843912776
 31
0.0
  0
LINE
  5
2CD
  8
0
 10
5.784417336595498
 20
-6.220514843912776
 30
0.0
 11
5.651439346622702
 21
-6.315805523941052
 31
0.0
  0
LINE
  5
2CE
  8
0
 10
5.651439346622702
 20
-6.315805523941052
 30
0.0
 11
5.524978381394332
 21
-6.419589355971696
 31
0.0
  0
LINE
  5
2CF
  8
0
 10
5.524978381394332
 20
-6.419589355971696
 30
0.0
 11
5.405575966178135
 21
-6.531421921702771
 31
0.0
  0
LINE
  5
2D0
  8
0
 10
5.405575966178135
 20
-6.531421921702771
 30
0.0
 11
5.29374340044706
 21
-6.650824336918967
 31
0.0
  0
LINE
  5
2D1
  8
0
 10
5.29374340044706
 20
-6.650824336918967
 30
0.0
 11
5.189959568416415
 21
-6.777285302147337
 31
0.0
  0
LINE
  5
2D2
  8
0
 10
5.189959568416415
 20
-6.777285302147337
 30
0.0
 11
5.094668888388139
 21
-6.910263292120131
 31
0.0
  0
LINE
  5
2D3
  8
0
 10
5.094668888388139
 20
-6.910263292120131
 30
0.0
 11
5.008279409683407
 21
-7.049188874669138
 31
0.0
  0
LINE
  5
2D4
  8
0
 10
5.008279409683407
 20
-7.049188874669138
 30
0.0
 11
4.931161065312782
 21
-7.193467149121633
 31
0.0
  0
LINE
  5
2D5
  8
0
 10
4.931161065312782
 20
-7.193467149121633
 30
0.0
 11
4.863644087866286
 21
-7.342480293756411
 31
0.0
  0
LINE
  5
2D6
  8
0
 10
4.863644087866286
 20
-7.342480293756411
 30
0.0
 11
4.806017595406738
 21
-7.495590211411232
 31
0.0
  0
LINE
  5
2D7
  8
0
 10
4.806017595406738
 20
-7.495590211411232
 30
0.0
 11
4.758528353421831
 21
-7.652141261912834
 31
0.0
  0
LINE
  5
2D8
  8
0
 10
4.758528353421831
 20
-7.652141261912834
 30
0.0
 11
4.721379718136426
 21
-7.811463069628815
 31
0.0
  0
LINE
  5
2D9
  8
0
 10
4.721379718136426
 20
-7.811463069628815
 30
0.0
 11
4.694730765709976
 21
-7.972873394119006
 31
0.0
  0
LINE
  5
2DA
  8
0
 10
4.694730765709976
 20
-7.972873394119006
 30
0.0
 11
4.678695611047993
 21
-8.135681051593778
 31
0.0
  0
LINE
  5
2DB
  8
0
 10
4.678695611047993
 20
-8.135681051593778
 30
0.0
 11
4.673342919144501
 21
-8.299188874669136
 31
0.0
  0
LINE
  5
2DC
  8
0
 10
4.673342919144501
 20
-8.299188874669136
 30
0.0
 11
4.678695611047991
 21
-8.462696697744493
 31
0.0
  0
LINE
  5
2DD
  8
0
 10
4.678695611047991
 20
-8.462696697744493
 30
0.0
 11
4.694730765709974
 21
-8.625504355219265
 31
0.0
  0
LINE
  5
2DE
  8
0
 10
4.694730765709974
 20
-8.625504355219265
 30
0.0
 11
4.721379718136423
 21
-8.786914679709456
 31
0.0
  0
LINE
  5
2DF
  8
0
 10
4.721379718136423
 20
-8.786914679709456
 30
0.0
 11
4.758528353421829
 21
-8.946236487425438
 31
0.0
  0
LINE
  5
2E0
  8
0
 10
4.758528353421829
 20
-8.946236487425438
 30
0.0
 11
4.806017595406734
 21
-9.102787537927039
 31
0.0
  0
LINE
  5
2E1
  8
0
 10
4.806017595406734
 20
-9.102787537927039
 30
0.0
 11
4.863644087866281
 21
-9.25589745558186
 31
0.0
  0
LINE
  5
2E2
  8
0
 10
4.863644087866281
 20
-9.25589745558186
 30
0.0
 11
4.931161065312776
 21
-9.404910600216638
 31
0.0
  0
LINE
  5
2E3
  8
0
 10
4.931161065312776
 20
-9.404910600216638
 30
0.0
 11
5.008279409683401
 21
-9.549188874669133
 31
0.0
  0
LINE
  5
2E4
  8
0
 10
5.008279409683401
 20
-9.549188874669133
 30
0.0
 11
5.094668888388134
 21
-9.68811445721814
 31
0.0
  0
LINE
  5
2E5
  8
0
 10
5.094668888388134
 20
-9.68811445721814
 30
0.0
 11
5.189959568416408
 21
-9.821092447190937
 31
0.0
  0
LINE
  5
2E6
  8
0
 10
5.189959568416408
 20
-9.821092447190937
 30
0.0
 11
5.293743400447052
 21
-9.947553412419307
 31
0.0
  0
LINE
  5
2E7
  8
0
 10
5.293743400447052
 20
-9.947553412419307
 30
0.0
 11
5.405575966178126
 21
-10.0669558276355
 31
0.0
  0
LINE
  5
2E8
  8
0
 10
5.405575966178126
 20
-10.0669558276355
 30
0.0
 11
5.524978381394322
 21
-10.17878839336658
 31
0.0
  0
LINE
  5
2E9
  8
0
 10
5.524978381394322
 20
-10.17878839336658
 30
0.0
 11
5.651439346622694
 21
-10.28257222539723
 31
0.0
  0
LINE
  5
2EA
  8
0
 10
5.651439346622694
 20
-10.28257222539723
 30
0.0
 11
5.784417336595489
 21
-10.3778629054255
 31
0.0
  0
LINE
  5
2EB
  8
0
 10
5.784417336595489
 20
-10.3778629054255
 30
0.0
 11
5.923342919144496
 21
-10.46425238413023
 31
0.0
  0
LINE
  5
2EC
  8
0
 10
5.923342919144496
 20
-10.46425238413023
 30
0.0
 11
6.067621193596993
 21
-10.54137072850086
 31
0.0
  0
LINE
  5
2ED
  8
0
 10
6.067621193596993
 20
-10.54137072850086
 30
0.0
 11
6.216634338231773
 21
-10.60888770594735
 31
0.0
  0
LINE
  5
2EE
  8
0
 10
6.216634338231773
 20
-10.60888770594735
 30
0.0
 11
6.369744255886594
 21
-10.6665141984069
 31
0.0
  0
LINE
  5
2EF
  8
0
 10
6.369744255886594
 20
-10.6665141984069
 30
0.0
 11
6.526295306388197
 21
-10.71400344039181
 31
0.0
  0
LINE
  5
2F0
  8
0
 10
6.526295306388197
 20
-10.71400344039181
 30
0.0
 11
6.685617114104179
 21
-10.75115207567722
 31
0.0
  0
LINE
  5
2F1
  8
0
 10
6.685617114104179
 20
-10.75115207567722
 30
0.0
 11
6.847027438594371
 21
-10.77780102810367
 31
0.0
  0
LINE
  5
2F2
  8
0
 10
6.847027438594371
 20
-10.77780102810367
 30
0.0
 11
7.009835096069144
 21
-10.79383618276565
 31
0.0
  0
LINE
  5
2F3
  8
0
 10
7.009835096069144
 20
-10.79383618276565
 30
0.0
 11
7.173342919144502
 21
-10.79918887466914
 31
0.0
  0
LINE
  5
2F4
  8
0
 10
7.173342919144502
 20
-10.79918887466914
 30
0.0
 11
7.336850742219861
 21
-10.79383618276565
 31
0.0
  0
LINE
  5
2F5
  8
0
 10
7.336850742219861
 20
-10.79383618276565
 30
0.0
 11
7.499658399694633
 21
-10.77780102810367
 31
0.0
  0
LINE
  5
2F6
  8
0
 10
7.499658399694633
 20
-10.77780102810367
 30
0.0
 11
7.661068724184825
 21
-10.75115207567722
 31
0.0
  0
LINE
  5
2F7
  8
0
 10
7.661068724184825
 20
-10.75115207567722
 30
0.0
 11
7.820390531900808
 21
-10.71400344039181
 31
0.0
  0
LINE
  5
2F8
  8
0
 10
7.820390531900808
 20
-10.71400344039181
 30
0.0
 11
7.976941582402411
 21
-10.6665141984069
 31
0.0
  0
LINE
  5
2F9
  8
0
 10
7.976941582402411
 20
-10.6665141984069
 30
0.0
 11
8.130051500057233
 21
-10.60888770594735
 31
0.0
  0
LINE
  5
2FA
  8
0
 10
8.130051500057233
 20
-10.60888770594735
 30
0.0
 11
8.279064644692012
 21
-10.54137072850086
 31
0.0
  0
LINE
  5
2FB
  8
0
 10
8.279064644692012
 20
-10.54137072850086
 30
0.0
 11
8.423342919144508
 21
-10.46425238413023
 31
0.0
  0
LINE
  5
2FC
  8
0
 10
8.423342919144508
 20
-10.46425238413023
 30
0.0
 11
8.562268501693515
 21
-10.3778629054255
 31
0.0
  0
LINE
  5
2FD
  8
0
 10
8.562268501693515
 20
-10.3778629054255
 30
0.0
 11
8.69524649166631
 21
-10.28257222539722
 31
0.0
  0
LINE
  5
2FE
  8
0
 10
8.69524649166631
 20
-10.28257222539722
 30
0.0
 11
8.821707456894682
 21
-10.17878839336658
 31
0.0
  0
LINE
  5
2FF
  8
0
 10
8.821707456894682
 20
-10.17878839336658
 30
0.0
 11
8.941109872110879
 21
-10.0669558276355
 31
0.0
  0
LINE
  5
300
  8
0
 10
8.941109872110879
 20
-10.0669558276355
 30
0.0
 11
9.052942437841953
 21
-9.947553412419301
 31
0.0
  0
LINE
  5
301
  8
0
 10
9.052942437841953
 20
-9.947553412419301
 30
0.0
 11
9.156726269872598
 21
-9.821092447190932
 31
0.0
  0
LINE
  5
302
  8
0
 10
9.156726269872598
 20
-9.821092447190932
 30
0.0
 11
9.252016949900872
 21
-9.688114457218134
 31
0.0
  0
LINE
  5
303
  8
0
 10
9.252016949900872
 20
-9.688114457218134
 30
0.0
 11
9.338406428605605
 21
-9.549188874669127
 31
0.0
  0
LINE
  5
304
  8
0
 10
9.338406428605605
 20
-9.549188874669127
 30
0.0
 11
9.415524772976228
 21
-9.40491060021663
 31
0.0
  0
LINE
  5
305
  8
0
 10
9.415524772976228
 20
-9.40491060021663
 30
0.0
 11
9.483041750422725
 21
-9.255897455581849
 31
0.0
  0
LINE
  5
306
  8
0
 10
9.483041750422725
 20
-9.255897455581849
 30
0.0
 11
9.540668242882271
 21
-9.102787537927027
 31
0.0
  0
LINE
  5
307
  8
0
 10
9.540668242882271
 20
-9.102787537927027
 30
0.0
 11
9.588157484867176
 21
-8.946236487425423
 31
0.0
  0
LINE
  5
308
  8
0
 10
9.588157484867176
 20
-8.946236487425423
 30
0.0
 11
9.62530612015258
 21
-8.786914679709442
 31
0.0
  0
LINE
  5
309
  8
0
 10
9.62530612015258
 20
-8.786914679709442
 30
0.0
 11
9.65195507257903
 21
-8.625504355219249
 31
0.0
  0
LINE
  5
30A
  8
0
 10
9.65195507257903
 20
-8.625504355219249
 30
0.0
 11
9.667990227241011
 21
-8.462696697744477
 31
0.0
  0
LINE
  5
30B
  8
0
 10
9.667990227241011
 20
-8.462696697744477
 30
0.0
 11
9.6733429191445
 21
-8.299188874669142
 31
0.0
  0
LINE
  5
30C
  8
0
 10
27.02334291914449
 20
-8.299188874669142
 30
0.0
 11
27.017990227241
 21
-8.135681051593783
 31
0.0
  0
LINE
  5
30D
  8
0
 10
27.017990227241
 20
-8.135681051593783
 30
0.0
 11
27.00195507257901
 21
-7.972873394119015
 31
0.0
  0
LINE
  5
30E
  8
0
 10
27.00195507257901
 20
-7.972873394119015
 30
0.0
 11
26.97530612015256
 21
-7.811463069628823
 31
0.0
  0
LINE
  5
30F
  8
0
 10
26.97530612015256
 20
-7.811463069628823
 30
0.0
 11
26.93815748486715
 21
-7.652141261912843
 31
0.0
  0
LINE
  5
310
  8
0
 10
26.93815748486715
 20
-7.652141261912843
 30
0.0
 11
26.89066824288225
 21
-7.495590211411241
 31
0.0
  0
LINE
  5
311
  8
0
 10
26.89066824288225
 20
-7.495590211411241
 30
0.0
 11
26.8330417504227
 21
-7.342480293756423
 31
0.0
  0
LINE
  5
312
  8
0
 10
26.8330417504227
 20
-7.342480293756423
 30
0.0
 11
26.76552477297621
 21
-7.193467149121645
 31
0.0
  0
LINE
  5
313
  8
0
 10
26.76552477297621
 20
-7.193467149121645
 30
0.0
 11
26.68840642860558
 21
-7.04918887466915
 31
0.0
  0
LINE
  5
314
  8
0
 10
26.68840642860558
 20
-7.04918887466915
 30
0.0
 11
26.60201694990085
 21
-6.910263292120143
 31
0.0
  0
LINE
  5
315
  8
0
 10
26.60201694990085
 20
-6.910263292120143
 30
0.0
 11
26.50672626987257
 21
-6.777285302147348
 31
0.0
  0
LINE
  5
316
  8
0
 10
26.50672626987257
 20
-6.777285302147348
 30
0.0
 11
26.40294243784193
 21
-6.650824336918978
 31
0.0
  0
LINE
  5
317
  8
0
 10
26.40294243784193
 20
-6.650824336918978
 30
0.0
 11
26.29110987211086
 21
-6.531421921702782
 31
0.0
  0
LINE
  5
318
  8
0
 10
26.29110987211086
 20
-6.531421921702782
 30
0.0
 11
26.17170745689466
 21
-6.419589355971707
 31
0.0
  0
LINE
  5
319
  8
0
 10
26.17170745689466
 20
-6.419589355971707
 30
0.0
 11
26.04524649166629
 21
-6.315805523941063
 31
0.0
  0
LINE
  5
31A
  8
0
 10
26.04524649166629
 20
-6.315805523941063
 30
0.0
 11
25.9122685016935
 21
-6.22051484391279
 31
0.0
  0
LINE
  5
31B
  8
0
 10
25.9122685016935
 20
-6.22051484391279
 30
0.0
 11
25.77334291914449
 21
-6.134125365208055
 31
0.0
  0
LINE
  5
31C
  8
0
 10
25.77334291914449
 20
-6.134125365208055
 30
0.0
 11
25.629064644692
 21
-6.057007020837433
 31
0.0
  0
LINE
  5
31D
  8
0
 10
25.629064644692
 20
-6.057007020837433
 30
0.0
 11
25.48005150005722
 21
-5.989490043390936
 31
0.0
  0
LINE
  5
31E
  8
0
 10
25.48005150005722
 20
-5.989490043390936
 30
0.0
 11
25.3269415824024
 21
-5.93186355093139
 31
0.0
  0
LINE
  5
31F
  8
0
 10
25.3269415824024
 20
-5.93186355093139
 30
0.0
 11
25.1703905319008
 21
-5.884374308946484
 31
0.0
  0
LINE
  5
320
  8
0
 10
25.1703905319008
 20
-5.884374308946484
 30
0.0
 11
25.01106872418482
 21
-5.847225673661078
 31
0.0
  0
LINE
  5
321
  8
0
 10
25.01106872418482
 20
-5.847225673661078
 30
0.0
 11
24.84965839969463
 21
-5.820576721234627
 31
0.0
  0
LINE
  5
322
  8
0
 10
24.84965839969463
 20
-5.820576721234627
 30
0.0
 11
24.68685074221986
 21
-5.804541566572646
 31
0.0
  0
LINE
  5
323
  8
0
 10
24.68685074221986
 20
-5.804541566572646
 30
0.0
 11
24.5233429191445
 21
-5.799188874669154
 31
0.0
  0
LINE
  5
324
  8
0
 10
24.5233429191445
 20
-5.799188874669154
 30
0.0
 11
24.35983509606914
 21
-5.804541566572646
 31
0.0
  0
LINE
  5
325
  8
0
 10
24.35983509606914
 20
-5.804541566572646
 30
0.0
 11
24.19702743859437
 21
-5.820576721234627
 31
0.0
  0
LINE
  5
326
  8
0
 10
24.19702743859437
 20
-5.820576721234627
 30
0.0
 11
24.03561711410418
 21
-5.847225673661078
 31
0.0
  0
LINE
  5
327
  8
0
 10
24.03561711410418
 20
-5.847225673661078
 30
0.0
 11
23.8762953063882
 21
-5.884374308946484
 31
0.0
  0
LINE
  5
328
  8
0
 10
23.8762953063882
 20
-5.884374308946484
 30
0.0
 11
23.7197442558866
 21
-5.93186355093139
 31
0.0
  0
LINE
  5
329
  8
0
 10
23.7197442558866
 20
-5.93186355093139
 30
0.0
 11
23.56663433823178
 21
-5.989490043390936
 31
0.0
  0
LINE
  5
32A
  8
0
 10
23.56663433823178
 20
-5.989490043390936
 30
0.0
 11
23.417621193597
 21
-6.057007020837433
 31
0.0
  0
LINE
  5
32B
  8
0
 10
23.417621193597
 20
-6.057007020837433
 30
0.0
 11
23.27334291914451
 21
-6.134125365208055
 31
0.0
  0
LINE
  5
32C
  8
0
 10
23.27334291914451
 20
-6.134125365208055
 30
0.0
 11
23.1344173365955
 21
-6.220514843912787
 31
0.0
  0
LINE
  5
32D
  8
0
 10
23.1344173365955
 20
-6.220514843912787
 30
0.0
 11
23.00143934662271
 21
-6.315805523941063
 31
0.0
  0
LINE
  5
32E
  8
0
 10
23.00143934662271
 20
-6.315805523941063
 30
0.0
 11
22.87497838139434
 21
-6.419589355971705
 31
0.0
  0
LINE
  5
32F
  8
0
 10
22.87497838139434
 20
-6.419589355971705
 30
0.0
 11
22.75557596617814
 21
-6.531421921702779
 31
0.0
  0
LINE
  5
330
  8
0
 10
22.75557596617814
 20
-6.531421921702779
 30
0.0
 11
22.64374340044707
 21
-6.650824336918975
 31
0.0
  0
LINE
  5
331
  8
0
 10
22.64374340044707
 20
-6.650824336918975
 30
0.0
 11
22.53995956841642
 21
-6.777285302147345
 31
0.0
  0
LINE
  5
332
  8
0
 10
22.53995956841642
 20
-6.777285302147345
 30
0.0
 11
22.44466888838815
 21
-6.910263292120139
 31
0.0
  0
LINE
  5
333
  8
0
 10
22.44466888838815
 20
-6.910263292120139
 30
0.0
 11
22.35827940968342
 21
-7.049188874669143
 31
0.0
  0
LINE
  5
334
  8
0
 10
22.35827940968342
 20
-7.049188874669143
 30
0.0
 11
22.28116106531279
 21
-7.19346714912164
 31
0.0
  0
LINE
  5
335
  8
0
 10
22.28116106531279
 20
-7.19346714912164
 30
0.0
 11
22.2136440878663
 21
-7.342480293756417
 31
0.0
  0
LINE
  5
336
  8
0
 10
22.2136440878663
 20
-7.342480293756417
 30
0.0
 11
22.15601759540675
 21
-7.495590211411238
 31
0.0
  0
LINE
  5
337
  8
0
 10
22.15601759540675
 20
-7.495590211411238
 30
0.0
 11
22.10852835342184
 21
-7.652141261912837
 31
0.0
  0
LINE
  5
338
  8
0
 10
22.10852835342184
 20
-7.652141261912837
 30
0.0
 11
22.07137971813644
 21
-7.811463069628818
 31
0.0
  0
LINE
  5
339
  8
0
 10
22.07137971813644
 20
-7.811463069628818
 30
0.0
 11
22.04473076570999
 21
-7.972873394119008
 31
0.0
  0
LINE
  5
33A
  8
0
 10
22.04473076570999
 20
-7.972873394119008
 30
0.0
 11
22.028695611048
 21
-8.135681051593778
 31
0.0
  0
LINE
  5
33B
  8
0
 10
22.028695611048
 20
-8.135681051593778
 30
0.0
 11
22.02334291914451
 21
-8.299188874669136
 31
0.0
  0
LINE
  5
33C
  8
0
 10
22.02334291914451
 20
-8.299188874669136
 30
0.0
 11
22.028695611048
 21
-8.462696697744493
 31
0.0
  0
LINE
  5
33D
  8
0
 10
22.028695611048
 20
-8.462696697744493
 30
0.0
 11
22.04473076570999
 21
-8.625504355219263
 31
0.0
  0
LINE
  5
33E
  8
0
 10
22.04473076570999
 20
-8.625504355219263
 30
0.0
 11
22.07137971813643
 21
-8.786914679709453
 31
0.0
  0
LINE
  5
33F
  8
0
 10
22.07137971813643
 20
-8.786914679709453
 30
0.0
 11
22.10852835342184
 21
-8.946236487425434
 31
0.0
  0
LINE
  5
340
  8
0
 10
22.10852835342184
 20
-8.946236487425434
 30
0.0
 11
22.15601759540674
 21
-9.102787537927036
 31
0.0
  0
LINE
  5
341
  8
0
 10
22.15601759540674
 20
-9.102787537927036
 30
0.0
 11
22.21364408786629
 21
-9.255897455581854
 31
0.0
  0
LINE
  5
342
  8
0
 10
22.21364408786629
 20
-9.255897455581854
 30
0.0
 11
22.28116106531279
 21
-9.404910600216631
 31
0.0
  0
LINE
  5
343
  8
0
 10
22.28116106531279
 20
-9.404910600216631
 30
0.0
 11
22.35827940968341
 21
-9.549188874669127
 31
0.0
  0
LINE
  5
344
  8
0
 10
22.35827940968341
 20
-9.549188874669127
 30
0.0
 11
22.44466888838814
 21
-9.688114457218134
 31
0.0
  0
LINE
  5
345
  8
0
 10
22.44466888838814
 20
-9.688114457218134
 30
0.0
 11
22.53995956841642
 21
-9.821092447190928
 31
0.0
  0
LINE
  5
346
  8
0
 10
22.53995956841642
 20
-9.821092447190928
 30
0.0
 11
22.64374340044706
 21
-9.9475534124193
 31
0.0
  0
LINE
  5
347
  8
0
 10
22.64374340044706
 20
-9.9475534124193
 30
0.0
 11
22.75557596617814
 21
-10.06695582763549
 31
0.0
  0
LINE
  5
348
  8
0
 10
22.75557596617814
 20
-10.06695582763549
 30
0.0
 11
22.87497838139433
 21
-10.17878839336657
 31
0.0
  0
LINE
  5
349
  8
0
 10
22.87497838139433
 20
-10.17878839336657
 30
0.0
 11
23.0014393466227
 21
-10.28257222539721
 31
0.0
  0
LINE
  5
34A
  8
0
 10
23.0014393466227
 20
-10.28257222539721
 30
0.0
 11
23.13441733659549
 21
-10.37786290542549
 31
0.0
  0
LINE
  5
34B
  8
0
 10
23.13441733659549
 20
-10.37786290542549
 30
0.0
 11
23.2733429191445
 21
-10.46425238413022
 31
0.0
  0
LINE
  5
34C
  8
0
 10
23.2733429191445
 20
-10.46425238413022
 30
0.0
 11
23.417621193597
 21
-10.54137072850085
 31
0.0
  0
LINE
  5
34D
  8
0
 10
23.417621193597
 20
-10.54137072850085
 30
0.0
 11
23.56663433823178
 21
-10.60888770594734
 31
0.0
  0
LINE
  5
34E
  8
0
 10
23.56663433823178
 20
-10.60888770594734
 30
0.0
 11
23.7197442558866
 21
-10.66651419840689
 31
0.0
  0
LINE
  5
34F
  8
0
 10
23.7197442558866
 20
-10.66651419840689
 30
0.0
 11
23.8762953063882
 21
-10.7140034403918
 31
0.0
  0
LINE
  5
350
  8
0
 10
23.8762953063882
 20
-10.7140034403918
 30
0.0
 11
24.03561711410418
 21
-10.7511520756772
 31
0.0
  0
LINE
  5
351
  8
0
 10
24.03561711410418
 20
-10.7511520756772
 30
0.0
 11
24.19702743859437
 21
-10.77780102810366
 31
0.0
  0
LINE
  5
352
  8
0
 10
24.19702743859437
 20
-10.77780102810366
 30
0.0
 11
24.35983509606914
 21
-10.79383618276564
 31
0.0
  0
LINE
  5
353
  8
0
 10
24.35983509606914
 20
-10.79383618276564
 30
0.0
 11
24.5233429191445
 21
-10.79918887466913
 31
0.0
  0
LINE
  5
354
  8
0
 10
24.5233429191445
 20
-10.79918887466913
 30
0.0
 11
24.68685074221986
 21
-10.79383618276564
 31
0.0
  0
LINE
  5
355
  8
0
 10
24.68685074221986
 20
-10.79383618276564
 30
0.0
 11
24.84965839969463
 21
-10.77780102810365
 31
0.0
  0
LINE
  5
356
  8
0
 10
24.84965839969463
 20
-10.77780102810365
 30
0.0
 11
25.01106872418482
 21
-10.7511520756772
 31
0.0
  0
LINE
  5
357
  8
0
 10
25.01106872418482
 20
-10.7511520756772
 30
0.0
 11
25.1703905319008
 21
-10.7140034403918
 31
0.0
  0
LINE
  5
358
  8
0
 10
25.1703905319008
 20
-10.7140034403918
 30
0.0
 11
25.32694158240241
 21
-10.66651419840689
 31
0.0
  0
LINE
  5
359
  8
0
 10
25.32694158240241
 20
-10.66651419840689
 30
0.0
 11
25.48005150005722
 21
-10.60888770594734
 31
0.0
  0
LINE
  5
35A
  8
0
 10
25.48005150005722
 20
-10.60888770594734
 30
0.0
 11
25.629064644692
 21
-10.54137072850085
 31
0.0
  0
LINE
  5
35B
  8
0
 10
25.629064644692
 20
-10.54137072850085
 30
0.0
 11
25.7733429191445
 21
-10.46425238413022
 31
0.0
  0
LINE
  5
35C
  8
0
 10
25.7733429191445
 20
-10.46425238413022
 30
0.0
 11
25.9122685016935
 21
-10.37786290542549
 31
0.0
  0
LINE
  5
35D
  8
0
 10
25.9122685016935
 20
-10.37786290542549
 30
0.0
 11
26.0452464916663
 21
-10.28257222539721
 31
0.0
  0
LINE
  5
35E
  8
0
 10
26.0452464916663
 20
-10.28257222539721
 30
0.0
 11
26.17170745689467
 21
-10.17878839336657
 31
0.0
  0
LINE
  5
35F
  8
0
 10
26.17170745689467
 20
-10.17878839336657
 30
0.0
 11
26.29110987211087
 21
-10.06695582763549
 31
0.0
  0
LINE
  5
360
  8
0
 10
26.29110987211087
 20
-10.06695582763549
 30
0.0
 11
26.40294243784194
 21
-9.947553412419293
 31
0.0
  0
LINE
  5
361
  8
0
 10
26.40294243784194
 20
-9.947553412419293
 30
0.0
 11
26.50672626987259
 21
-9.821092447190923
 31
0.0
  0
LINE
  5
362
  8
0
 10
26.50672626987259
 20
-9.821092447190923
 30
0.0
 11
26.60201694990086
 21
-9.688114457218125
 31
0.0
  0
LINE
  5
363
  8
0
 10
26.60201694990086
 20
-9.688114457218125
 30
0.0
 11
26.68840642860559
 21
-9.549188874669118
 31
0.0
  0
LINE
  5
364
  8
0
 10
26.68840642860559
 20
-9.549188874669118
 30
0.0
 11
26.76552477297621
 21
-9.404910600216624
 31
0.0
  0
LINE
  5
365
  8
0
 10
26.76552477297621
 20
-9.404910600216624
 30
0.0
 11
26.83304175042271
 21
-9.255897455581843
 31
0.0
  0
LINE
  5
366
  8
0
 10
26.83304175042271
 20
-9.255897455581843
 30
0.0
 11
26.89066824288226
 21
-9.102787537927021
 31
0.0
  0
LINE
  5
367
  8
0
 10
26.89066824288226
 20
-9.102787537927021
 30
0.0
 11
26.93815748486716
 21
-8.94623648742542
 31
0.0
  0
LINE
  5
368
  8
0
 10
26.93815748486716
 20
-8.94623648742542
 30
0.0
 11
26.97530612015256
 21
-8.786914679709438
 31
0.0
  0
LINE
  5
369
  8
0
 10
26.97530612015256
 20
-8.786914679709438
 30
0.0
 11
27.00195507257901
 21
-8.625504355219245
 31
0.0
  0
LINE
  5
36A
  8
0
 10
27.00195507257901
 20
-8.625504355219245
 30
0.0
 11
27.017990227241
 21
-8.462696697744477
 31
0.0
  0
LINE
  5
36B
  8
0
 10
27.017990227241
 20
-8.462696697744477
 30
0.0
 11
27.02334291914449
 21
-8.299188874669142
 31
0.0
  0
LINE
  5
36C
  8
0
 10
-36.50165708085549
 20
-19.29918887466914
 30
0.0
 11
33.4983429191445
 21
-19.29918887466914
 31
0.0
  0
LINE
  5
36D
  8
0
 10
-36.50165708085549
 20
-19.29918887466914
 30
0.0
 11
-36.50165708085549
 21
34.50081112533086
 31
0.0
  0
LINE
  5
36E
  8
0
 10
-36.50165708085549
 20
34.50081112533086
 30
0.0
 11
33.4983429191445
 21
34.50081112533086
 31
0.0
  0
LINE
  5
36F
  8
0
 10
33.4983429191445
 20
-19.29918887466914
 30
0.0
 11
33.4983429191445
 21
34.50081112533086
 31
0.0
  0
LINE
  5
370
  8
0
 10
-31.50165708085549
 20
-3.59918887466914
 30
0.0
 11
28.4983429191445
 21
-3.59918887466914
 31
0.0
  0
LINE
  5
371
  8
0
 10
-31.50165708085549
 20
-3.59918887466914
 30
0.0
 11
-31.50165708085549
 21
18.80081112533086
 31
0.0
  0
LINE
  5
372
  8
0
 10
-31.50165708085549
 20
18.80081112533086
 30
0.0
 11
28.4983429191445
 21
18.80081112533086
 31
0.0
  0
LINE
  5
373
  8
0
 10
28.4983429191445
 20
-3.59918887466914
 30
0.0
 11
28.4983429191445
 21
18.80081112533086
 31
0.0
  0
ENDSEC
  0
EOF
